<svg id="svg" version="1.1" xmlns="http://www.w3.org/2000/svg" xmlns:xlink="http://www.w3.org/1999/xlink" width="400" height="60.947810437912416" viewBox="0, 0, 400,60.947810437912416"><g id="svgg"><path id="path0" d="M22.333 1.148 C 22.196 1.226,21.222 1.343,20.169 1.407 C 19.117 1.471,18.217 1.582,18.169 1.653 C 18.122 1.725,17.560 1.836,16.921 1.900 C 16.282 1.964,15.718 2.083,15.668 2.164 C 15.618 2.245,15.185 2.364,14.705 2.427 C 14.226 2.491,13.833 2.602,13.833 2.673 C 13.833 2.745,13.515 2.856,13.125 2.921 C 12.493 3.025,11.819 3.270,10.500 3.877 C 8.292 4.892,5.670 6.869,4.833 8.149 C 4.696 8.359,4.452 8.686,4.292 8.874 C 4.131 9.063,4.000 9.319,4.000 9.442 C 4.000 9.566,3.939 9.667,3.865 9.667 C 3.635 9.667,2.983 11.343,2.882 12.194 C 2.830 12.637,2.722 13.000,2.643 13.000 C 2.565 13.000,2.500 14.088,2.500 15.417 C 2.500 16.746,2.565 17.833,2.644 17.833 C 2.723 17.833,2.834 18.172,2.891 18.586 C 2.948 19.001,3.146 19.671,3.331 20.077 C 3.515 20.483,3.667 20.894,3.667 20.991 C 3.667 21.088,3.742 21.167,3.833 21.167 C 3.925 21.167,4.000 21.282,4.000 21.422 C 4.000 21.562,4.106 21.718,4.235 21.767 C 4.364 21.817,4.516 22.040,4.571 22.262 C 4.627 22.485,4.747 22.667,4.837 22.667 C 4.926 22.667,5.000 22.762,5.000 22.877 C 5.000 22.993,5.702 23.762,6.559 24.586 C 8.122 26.086,8.695 26.568,9.816 27.320 C 10.146 27.542,10.620 27.860,10.868 28.028 C 11.117 28.196,11.390 28.333,11.475 28.333 C 11.561 28.333,11.674 28.446,11.727 28.583 C 11.780 28.721,11.938 28.833,12.078 28.833 C 12.218 28.833,12.333 28.893,12.333 28.967 C 12.333 29.040,12.596 29.195,12.917 29.311 C 13.237 29.427,13.500 29.592,13.500 29.677 C 13.500 29.763,13.607 29.833,13.738 29.833 C 13.869 29.833,14.077 29.927,14.199 30.042 C 14.322 30.156,14.796 30.438,15.253 30.667 C 15.710 30.896,16.121 31.121,16.167 31.167 C 16.212 31.212,16.700 31.475,17.250 31.750 C 17.800 32.025,18.275 32.306,18.306 32.375 C 18.336 32.444,18.449 32.502,18.556 32.505 C 18.662 32.508,19.125 32.695,19.583 32.920 C 20.042 33.146,20.510 33.331,20.625 33.332 C 20.740 33.333,20.833 33.408,20.833 33.500 C 20.833 33.592,20.927 33.669,21.042 33.672 C 21.156 33.675,21.550 33.823,21.917 34.000 C 22.283 34.177,22.677 34.325,22.792 34.328 C 22.906 34.331,23.000 34.393,23.000 34.465 C 23.000 34.538,23.469 34.811,24.042 35.073 C 24.615 35.334,25.121 35.594,25.167 35.649 C 25.212 35.705,25.625 35.938,26.083 36.167 C 26.542 36.396,26.954 36.627,27.000 36.680 C 27.046 36.733,27.327 36.883,27.625 37.012 C 27.923 37.142,28.167 37.305,28.167 37.374 C 28.167 37.443,28.274 37.500,28.405 37.500 C 28.536 37.500,28.742 37.594,28.864 37.708 C 28.985 37.823,29.591 38.254,30.209 38.665 C 30.827 39.077,31.333 39.471,31.333 39.540 C 31.333 39.610,31.418 39.667,31.522 39.667 C 31.757 39.667,33.500 41.409,33.500 41.644 C 33.500 41.739,33.594 41.877,33.708 41.950 C 34.300 42.328,35.166 44.835,35.166 46.167 C 35.166 48.196,33.794 50.429,32.352 50.746 C 32.067 50.809,31.833 50.924,31.833 51.003 C 31.833 51.082,31.477 51.199,31.042 51.263 C 30.606 51.327,30.199 51.459,30.137 51.556 C 29.976 51.805,23.953 51.806,23.646 51.557 C 23.520 51.454,23.023 51.318,22.542 51.253 C 22.060 51.188,21.667 51.082,21.667 51.018 C 21.667 50.953,21.409 50.807,21.093 50.693 C 20.263 50.393,19.084 49.203,18.836 48.417 C 18.720 48.050,18.560 47.620,18.480 47.461 C 18.399 47.301,18.333 46.083,18.333 44.752 L 18.333 42.333 10.167 42.333 L 2.000 42.333 2.000 44.583 C 2.000 45.821,2.064 46.833,2.142 46.833 C 2.220 46.833,2.331 47.447,2.389 48.197 C 2.447 48.947,2.561 49.603,2.643 49.655 C 2.725 49.707,2.848 50.012,2.918 50.333 C 3.073 51.046,3.683 52.333,3.867 52.333 C 3.940 52.333,4.000 52.448,4.000 52.589 C 4.000 52.729,4.112 52.887,4.250 52.940 C 4.387 52.992,4.500 53.130,4.500 53.245 C 4.500 53.536,6.278 55.312,7.175 55.917 C 7.583 56.192,7.942 56.473,7.972 56.542 C 8.003 56.610,8.107 56.667,8.204 56.667 C 8.301 56.667,8.738 56.887,9.176 57.156 C 9.614 57.426,10.275 57.728,10.646 57.828 C 11.016 57.927,11.360 58.075,11.411 58.157 C 11.461 58.238,11.801 58.355,12.168 58.417 C 12.534 58.479,12.833 58.593,12.833 58.671 C 12.833 58.749,13.190 58.865,13.625 58.930 C 14.060 58.994,14.454 59.101,14.500 59.167 C 14.546 59.234,15.071 59.370,15.667 59.470 C 16.262 59.570,17.125 59.725,17.583 59.816 C 18.042 59.906,19.448 60.033,20.708 60.099 C 21.969 60.164,23.000 60.281,23.000 60.359 C 23.000 60.564,30.790 60.539,30.917 60.333 C 30.973 60.242,31.518 60.167,32.126 60.167 C 33.592 60.167,37.039 59.830,37.250 59.667 C 37.342 59.595,37.885 59.484,38.458 59.419 C 39.031 59.354,39.500 59.243,39.500 59.172 C 39.500 59.101,39.872 58.994,40.326 58.933 C 40.781 58.873,41.198 58.751,41.253 58.662 C 41.308 58.573,41.480 58.500,41.635 58.499 C 41.790 58.498,42.104 58.401,42.333 58.281 C 42.563 58.162,43.106 57.966,43.542 57.844 C 43.977 57.723,44.333 57.566,44.333 57.496 C 44.333 57.427,44.521 57.322,44.750 57.265 C 44.979 57.207,45.167 57.093,45.167 57.010 C 45.167 56.927,45.392 56.810,45.667 56.750 C 45.942 56.690,46.167 56.580,46.167 56.507 C 46.167 56.434,46.392 56.281,46.667 56.167 C 46.942 56.053,47.167 55.894,47.167 55.813 C 47.167 55.733,47.256 55.667,47.366 55.667 C 47.670 55.667,50.250 52.958,50.515 52.361 C 50.643 52.071,50.799 51.833,50.861 51.833 C 50.923 51.833,51.023 51.608,51.083 51.333 C 51.144 51.058,51.256 50.833,51.333 50.833 C 51.410 50.833,51.526 50.590,51.589 50.292 C 51.653 49.994,51.771 49.667,51.853 49.566 C 51.934 49.465,52.043 48.903,52.096 48.316 C 52.150 47.730,52.269 47.092,52.362 46.899 C 52.611 46.380,52.194 42.198,51.848 41.759 C 51.772 41.662,51.659 41.302,51.598 40.958 C 51.536 40.615,51.419 40.333,51.339 40.333 C 51.259 40.333,51.144 40.108,51.083 39.833 C 51.023 39.558,50.910 39.333,50.833 39.333 C 50.756 39.333,50.606 39.071,50.500 38.750 C 50.394 38.429,50.238 38.167,50.154 38.167 C 50.069 38.167,50.000 38.079,50.000 37.972 C 50.000 37.735,49.867 37.583,48.286 36.000 C 46.768 34.481,46.058 33.833,45.910 33.833 C 45.848 33.833,45.562 33.645,45.274 33.414 C 44.986 33.184,44.675 32.936,44.583 32.864 C 44.492 32.792,44.285 32.683,44.125 32.622 C 43.965 32.561,43.833 32.441,43.833 32.357 C 43.833 32.272,43.646 32.156,43.417 32.098 C 43.188 32.041,43.000 31.926,43.000 31.843 C 43.000 31.760,42.737 31.606,42.417 31.500 C 42.096 31.394,41.833 31.244,41.833 31.167 C 41.833 31.090,41.615 30.978,41.347 30.920 C 41.080 30.861,40.820 30.705,40.769 30.573 C 40.719 30.441,40.562 30.333,40.422 30.333 C 40.282 30.333,40.167 30.264,40.167 30.180 C 40.167 30.096,39.942 29.977,39.667 29.917 C 39.392 29.856,39.167 29.744,39.167 29.666 C 39.167 29.589,38.885 29.434,38.542 29.322 C 38.198 29.210,37.879 29.065,37.833 29.000 C 37.733 28.857,35.405 27.746,34.875 27.589 C 34.669 27.528,34.500 27.414,34.500 27.335 C 34.500 27.257,34.275 27.144,34.000 27.083 C 33.725 27.023,33.500 26.910,33.500 26.833 C 33.500 26.756,33.275 26.644,33.000 26.583 C 32.725 26.523,32.500 26.404,32.500 26.320 C 32.500 26.236,32.414 26.167,32.308 26.167 C 32.087 26.167,30.292 25.305,30.165 25.138 C 30.118 25.077,29.874 24.975,29.623 24.912 C 29.372 24.849,29.167 24.730,29.167 24.649 C 29.167 24.567,29.064 24.500,28.939 24.500 C 28.814 24.500,28.533 24.360,28.314 24.190 C 28.096 24.019,27.729 23.821,27.500 23.750 C 27.271 23.680,27.046 23.573,27.000 23.513 C 26.931 23.423,25.744 22.651,24.090 21.620 C 23.910 21.508,23.562 21.229,23.316 21.000 C 23.070 20.771,22.661 20.433,22.405 20.250 C 21.859 19.857,21.848 19.846,20.995 18.678 C 20.631 18.180,20.333 17.674,20.333 17.553 C 20.333 17.432,20.261 17.333,20.172 17.333 C 20.084 17.333,19.962 16.958,19.901 16.500 C 19.840 16.042,19.725 15.667,19.645 15.667 C 19.565 15.667,19.500 15.329,19.500 14.917 C 19.500 14.504,19.565 14.167,19.645 14.167 C 19.725 14.167,19.840 13.861,19.899 13.488 C 20.014 12.769,20.937 11.351,21.297 11.340 C 21.414 11.336,21.550 11.229,21.599 11.102 C 21.648 10.975,22.021 10.778,22.427 10.664 C 22.834 10.550,23.167 10.399,23.167 10.328 C 23.167 10.257,23.635 10.146,24.208 10.081 C 24.781 10.016,25.338 9.892,25.445 9.805 C 26.241 9.162,32.546 10.120,33.813 11.076 C 34.423 11.536,35.151 12.414,35.250 12.808 C 35.310 13.049,35.439 13.296,35.537 13.356 C 35.642 13.421,35.747 14.450,35.797 15.899 L 35.879 18.333 43.940 18.333 L 52.000 18.333 52.000 15.677 C 52.000 14.215,51.935 12.979,51.855 12.930 C 51.776 12.881,51.661 12.464,51.600 12.004 C 51.538 11.543,51.424 11.167,51.346 11.167 C 51.268 11.167,51.155 10.904,51.094 10.583 C 51.034 10.262,50.921 10.000,50.844 10.000 C 50.766 10.000,50.654 9.805,50.594 9.567 C 50.479 9.109,50.025 8.418,49.333 7.649 C 49.104 7.394,48.833 7.087,48.731 6.967 C 48.180 6.321,45.991 4.667,45.687 4.667 C 45.597 4.667,45.425 4.573,45.304 4.458 C 44.984 4.156,43.594 3.500,43.273 3.500 C 43.123 3.500,43.000 3.432,43.000 3.350 C 43.000 3.267,42.606 3.108,42.125 2.995 C 41.644 2.882,41.173 2.729,41.079 2.656 C 40.985 2.582,40.516 2.469,40.038 2.406 C 39.559 2.342,39.167 2.231,39.167 2.158 C 39.167 2.086,38.660 1.973,38.042 1.908 C 37.423 1.842,36.879 1.733,36.833 1.665 C 36.559 1.255,22.993 0.771,22.333 1.148 M133.500 1.148 C 133.362 1.226,132.389 1.343,131.337 1.407 C 130.284 1.470,129.347 1.585,129.253 1.662 C 129.160 1.738,128.577 1.854,127.958 1.920 C 127.340 1.985,126.833 2.095,126.833 2.163 C 126.833 2.232,126.485 2.336,126.058 2.394 C 125.632 2.453,125.201 2.563,125.100 2.639 C 124.999 2.715,124.485 2.877,123.958 2.999 C 123.431 3.120,123.000 3.275,123.000 3.341 C 123.000 3.408,122.737 3.512,122.417 3.572 C 122.096 3.633,121.833 3.747,121.833 3.828 C 121.833 3.908,121.608 4.023,121.333 4.083 C 121.058 4.144,120.833 4.248,120.833 4.315 C 120.833 4.383,120.571 4.541,120.250 4.667 C 119.929 4.793,119.667 4.957,119.667 5.031 C 119.667 5.106,119.586 5.167,119.486 5.167 C 119.105 5.167,116.000 7.984,116.000 8.330 C 116.000 8.396,115.850 8.622,115.667 8.833 C 115.483 9.045,115.333 9.319,115.333 9.442 C 115.333 9.566,115.258 9.667,115.167 9.667 C 115.075 9.667,115.000 9.746,115.000 9.842 C 115.000 9.939,114.852 10.344,114.670 10.743 C 114.489 11.141,114.291 11.887,114.230 12.400 C 114.170 12.913,114.056 13.333,113.977 13.333 C 113.789 13.333,113.789 47.953,113.976 48.069 C 114.055 48.117,114.161 48.562,114.212 49.056 C 114.263 49.551,114.461 50.299,114.652 50.719 C 114.844 51.138,115.000 51.561,115.000 51.658 C 115.000 51.754,115.075 51.833,115.167 51.833 C 115.258 51.833,115.333 51.948,115.333 52.089 C 115.333 52.229,115.446 52.387,115.583 52.440 C 115.721 52.492,115.833 52.625,115.833 52.734 C 115.833 53.289,117.953 55.383,119.308 56.167 C 119.545 56.304,119.823 56.492,119.924 56.583 C 120.025 56.675,120.402 56.900,120.762 57.083 C 121.122 57.267,121.440 57.467,121.468 57.529 C 121.496 57.590,121.890 57.736,122.343 57.852 C 122.796 57.968,123.167 58.117,123.167 58.184 C 123.167 58.250,123.466 58.355,123.832 58.417 C 124.199 58.478,124.539 58.595,124.589 58.676 C 124.639 58.757,125.052 58.873,125.507 58.933 C 125.961 58.994,126.333 59.101,126.333 59.172 C 126.333 59.243,126.802 59.354,127.375 59.419 C 127.948 59.484,128.492 59.595,128.583 59.665 C 128.802 59.832,132.109 60.168,133.532 60.167 C 134.145 60.167,134.693 60.242,134.750 60.333 C 134.890 60.560,142.667 60.560,142.667 60.333 C 142.667 60.240,143.125 60.166,143.708 60.166 C 145.168 60.165,148.547 59.834,148.749 59.672 C 148.841 59.598,149.385 59.484,149.958 59.419 C 150.531 59.354,151.000 59.243,151.000 59.172 C 151.000 59.101,151.375 58.993,151.833 58.932 C 152.292 58.872,152.667 58.758,152.667 58.680 C 152.667 58.602,153.004 58.487,153.417 58.425 C 153.829 58.364,154.167 58.248,154.167 58.170 C 154.167 58.091,154.410 57.974,154.708 57.909 C 155.216 57.799,157.317 56.756,157.500 56.522 C 157.546 56.464,157.805 56.304,158.075 56.166 C 159.373 55.507,162.169 52.296,162.413 51.183 C 162.475 50.899,162.589 50.667,162.665 50.667 C 162.742 50.667,162.857 50.348,162.921 49.958 C 162.985 49.569,163.123 49.145,163.227 49.016 C 163.358 48.855,163.435 47.047,163.475 43.224 L 163.533 37.667 155.359 37.667 L 147.184 37.667 147.134 43.006 C 147.099 46.701,147.026 48.382,146.897 48.465 C 146.795 48.530,146.656 48.771,146.588 49.000 C 146.429 49.535,145.431 50.443,144.719 50.700 C 144.415 50.810,144.167 50.952,144.167 51.015 C 144.167 51.077,143.810 51.182,143.375 51.247 C 142.940 51.311,142.480 51.450,142.354 51.554 C 142.049 51.805,136.026 51.807,135.863 51.557 C 135.801 51.460,135.450 51.330,135.083 51.268 C 133.706 51.033,132.250 50.028,131.524 48.810 L 131.162 48.203 131.206 30.643 L 131.250 13.083 131.831 12.208 C 132.150 11.727,132.509 11.333,132.628 11.333 C 132.746 11.333,132.884 11.229,132.933 11.102 C 132.981 10.975,133.356 10.777,133.765 10.662 C 134.174 10.548,134.546 10.393,134.593 10.318 C 134.639 10.243,135.126 10.131,135.675 10.069 C 136.225 10.007,136.714 9.891,136.764 9.811 C 136.880 9.623,141.500 9.622,141.500 9.810 C 141.500 9.888,141.961 10.001,142.525 10.060 C 143.088 10.119,143.632 10.232,143.733 10.312 C 143.834 10.391,144.184 10.543,144.511 10.648 C 145.197 10.868,146.418 11.975,146.592 12.535 C 146.658 12.745,146.795 12.970,146.897 13.035 C 147.024 13.116,147.101 14.517,147.138 17.410 L 147.192 21.667 155.365 21.667 L 163.538 21.667 163.474 17.054 C 163.426 13.600,163.359 12.425,163.205 12.374 C 163.092 12.336,163.000 12.120,163.000 11.894 C 163.000 11.204,162.062 9.228,161.250 8.205 C 160.905 7.771,159.538 6.392,159.126 6.062 C 158.363 5.452,157.198 4.691,156.875 4.592 C 156.669 4.529,156.500 4.408,156.500 4.322 C 156.500 4.237,156.406 4.164,156.292 4.161 C 156.177 4.158,155.783 4.010,155.417 3.833 C 155.050 3.656,154.656 3.509,154.542 3.506 C 154.427 3.503,154.333 3.433,154.333 3.351 C 154.333 3.270,153.846 3.106,153.250 2.988 C 152.654 2.869,152.167 2.714,152.167 2.642 C 152.167 2.570,151.792 2.462,151.333 2.401 C 150.875 2.340,150.500 2.234,150.500 2.165 C 150.500 2.095,149.994 1.985,149.375 1.920 C 148.756 1.854,148.173 1.737,148.078 1.660 C 147.577 1.251,134.146 0.779,133.500 1.148 M61.333 30.731 L 61.333 59.628 61.708 59.728 C 62.387 59.910,77.997 59.847,78.344 59.661 C 78.661 59.491,78.667 58.991,78.667 30.661 L 78.667 1.833 70.000 1.833 L 61.333 1.833 61.333 30.731 M172.833 30.661 C 172.833 58.991,172.839 59.491,173.156 59.661 C 173.504 59.847,217.935 59.913,218.625 59.728 L 219.000 59.628 219.000 55.231 L 219.000 50.833 204.583 50.833 L 190.167 50.833 190.167 42.333 L 190.167 33.833 201.583 33.833 L 213.000 33.833 213.000 29.583 L 213.000 25.333 201.583 25.333 L 190.167 25.333 190.167 17.917 L 190.167 10.500 204.583 10.500 L 219.000 10.500 219.000 6.167 L 219.000 1.833 195.917 1.833 L 172.833 1.833 172.833 30.661 M228.125 1.931 C 227.791 2.265,227.986 59.481,228.322 59.661 C 228.670 59.847,244.280 59.910,244.958 59.728 L 245.333 59.628 245.333 47.981 L 245.333 36.333 251.417 36.333 C 254.762 36.333,257.500 36.270,257.500 36.192 C 257.500 36.115,258.565 36.000,259.868 35.938 C 261.170 35.876,262.276 35.763,262.326 35.686 C 262.376 35.610,262.976 35.493,263.659 35.427 C 264.342 35.361,265.204 35.204,265.575 35.078 C 265.946 34.952,266.569 34.799,266.958 34.737 C 267.348 34.675,267.667 34.567,267.667 34.497 C 267.667 34.427,267.938 34.319,268.271 34.257 C 268.603 34.195,268.996 34.081,269.146 34.004 C 269.295 33.927,270.092 33.541,270.917 33.147 C 271.742 32.753,272.477 32.334,272.550 32.215 C 272.623 32.097,272.792 32.000,272.925 32.000 C 273.058 32.000,273.167 31.944,273.167 31.875 C 273.167 31.806,273.486 31.533,273.875 31.268 C 274.265 31.003,274.883 30.411,275.250 29.952 C 275.617 29.493,276.001 29.031,276.103 28.926 C 276.206 28.821,276.347 28.550,276.417 28.326 C 276.487 28.101,276.595 27.879,276.656 27.833 C 276.969 27.600,277.511 26.219,277.605 25.414 C 277.664 24.911,277.777 24.500,277.856 24.500 C 277.935 24.500,278.000 22.025,278.000 19.000 C 278.000 15.975,277.940 13.500,277.867 13.500 C 277.794 13.500,277.649 13.001,277.544 12.391 C 277.440 11.782,277.281 11.237,277.191 11.181 C 277.100 11.126,276.975 10.874,276.912 10.623 C 276.849 10.372,276.730 10.167,276.649 10.167 C 276.567 10.167,276.500 10.098,276.500 10.015 C 276.500 9.785,275.627 8.500,275.470 8.500 C 275.395 8.500,275.333 8.404,275.333 8.287 C 275.333 8.170,275.165 7.927,274.958 7.747 C 274.063 6.968,272.998 6.167,272.856 6.167 C 272.772 6.167,272.659 6.054,272.606 5.917 C 272.554 5.779,272.402 5.667,272.269 5.667 C 272.136 5.667,272.003 5.610,271.972 5.542 C 271.885 5.345,269.506 4.248,268.792 4.075 C 268.540 4.014,268.333 3.900,268.333 3.821 C 268.333 3.742,267.958 3.628,267.500 3.568 C 267.042 3.507,266.667 3.407,266.667 3.346 C 266.667 3.225,264.575 2.833,263.927 2.833 C 263.708 2.833,263.503 2.762,263.472 2.675 C 263.442 2.588,262.704 2.464,261.833 2.400 C 260.962 2.336,260.197 2.201,260.131 2.100 C 259.994 1.888,228.336 1.720,228.125 1.931 M294.212 2.292 C 294.100 2.545,293.958 3.014,293.897 3.335 C 293.836 3.655,293.694 4.104,293.581 4.333 C 293.469 4.563,293.325 5.106,293.261 5.542 C 293.198 5.977,293.084 6.333,293.009 6.333 C 292.933 6.333,292.821 6.669,292.759 7.079 C 292.698 7.490,292.585 7.864,292.510 7.911 C 292.434 7.958,292.321 8.333,292.260 8.744 C 292.198 9.156,292.085 9.531,292.010 9.577 C 291.934 9.624,291.780 10.151,291.667 10.748 C 291.554 11.345,291.403 11.833,291.330 11.833 C 291.257 11.833,291.146 12.208,291.083 12.667 C 291.020 13.125,290.909 13.500,290.837 13.500 C 290.764 13.500,290.654 13.836,290.593 14.246 C 290.531 14.656,290.419 15.031,290.343 15.077 C 290.267 15.124,290.155 15.499,290.093 15.911 C 290.031 16.322,289.919 16.697,289.843 16.744 C 289.767 16.791,289.613 17.318,289.500 17.915 C 289.388 18.512,289.236 19.000,289.163 19.000 C 289.091 19.000,288.980 19.375,288.917 19.833 C 288.854 20.292,288.744 20.667,288.672 20.667 C 288.601 20.667,288.493 20.978,288.432 21.359 C 288.371 21.740,288.269 22.134,288.205 22.234 C 288.078 22.435,287.590 24.138,287.305 25.375 C 287.205 25.810,287.066 26.167,286.997 26.167 C 286.928 26.167,286.818 26.523,286.753 26.958 C 286.689 27.394,286.576 27.825,286.504 27.917 C 286.431 28.008,286.317 28.346,286.250 28.667 C 286.183 28.988,286.074 29.325,286.008 29.417 C 285.942 29.508,285.793 30.033,285.676 30.583 C 285.559 31.133,285.405 31.658,285.334 31.750 C 285.263 31.842,285.152 32.235,285.088 32.624 C 285.024 33.013,284.909 33.370,284.833 33.417 C 284.758 33.463,284.642 33.817,284.577 34.203 C 284.512 34.588,284.397 35.019,284.322 35.160 C 284.119 35.543,283.505 37.660,283.391 38.375 C 283.336 38.719,283.228 39.000,283.151 39.000 C 283.074 39.000,282.962 39.375,282.901 39.833 C 282.840 40.292,282.730 40.667,282.655 40.667 C 282.581 40.667,282.470 41.005,282.408 41.419 C 282.346 41.832,282.237 42.207,282.166 42.251 C 282.095 42.294,281.940 42.818,281.821 43.415 C 281.703 44.012,281.551 44.500,281.485 44.500 C 281.419 44.500,281.313 44.875,281.250 45.333 C 281.187 45.792,281.072 46.167,280.995 46.167 C 280.917 46.167,280.801 46.523,280.737 46.958 C 280.673 47.394,280.568 47.788,280.504 47.833 C 280.385 47.919,280.181 48.597,279.701 50.500 C 279.551 51.096,279.377 51.621,279.314 51.667 C 279.251 51.712,279.146 52.106,279.081 52.542 C 279.016 52.977,278.900 53.333,278.825 53.333 C 278.749 53.333,278.636 53.672,278.574 54.085 C 278.512 54.499,278.402 54.874,278.329 54.920 C 278.255 54.965,278.143 55.320,278.079 55.709 C 278.015 56.098,277.903 56.492,277.830 56.583 C 277.757 56.675,277.606 57.219,277.494 57.792 C 277.382 58.365,277.225 58.833,277.145 58.833 C 276.805 58.833,277.010 59.630,277.375 59.728 C 278.026 59.903,292.496 59.847,292.829 59.669 C 293.048 59.552,293.193 59.160,293.337 58.294 C 293.448 57.628,293.604 57.001,293.686 56.900 C 293.767 56.799,293.881 56.368,293.939 55.942 C 293.998 55.515,294.100 55.167,294.168 55.167 C 294.235 55.167,294.340 54.795,294.400 54.340 C 294.460 53.886,294.575 53.473,294.656 53.423 C 294.736 53.374,294.854 52.958,294.917 52.500 C 294.980 52.042,295.089 51.631,295.159 51.588 C 295.230 51.544,295.388 50.944,295.510 50.254 C 295.633 49.564,295.793 49.000,295.867 49.000 C 295.940 49.000,296.000 48.887,296.000 48.750 C 296.000 48.531,297.148 48.500,305.333 48.500 L 314.667 48.500 314.667 48.907 C 314.667 49.131,314.735 49.356,314.818 49.407 C 314.901 49.458,315.020 49.875,315.083 50.334 C 315.146 50.792,315.252 51.167,315.319 51.167 C 315.385 51.167,315.538 51.768,315.657 52.503 C 315.776 53.238,315.938 53.878,316.015 53.926 C 316.093 53.974,316.206 54.386,316.267 54.840 C 316.327 55.295,316.433 55.667,316.502 55.667 C 316.572 55.667,316.680 56.079,316.743 56.583 C 316.806 57.088,316.922 57.500,317.000 57.500 C 317.078 57.500,317.194 57.914,317.258 58.421 C 317.445 59.918,316.921 59.834,325.995 59.831 C 330.352 59.830,334.085 59.784,334.292 59.728 C 334.676 59.625,334.843 58.795,334.519 58.595 C 334.438 58.545,334.321 58.167,334.260 57.756 C 334.198 57.344,334.081 56.967,334.000 56.917 C 333.919 56.867,333.802 56.490,333.741 56.079 C 333.679 55.669,333.574 55.333,333.508 55.333 C 333.441 55.333,333.287 54.805,333.165 54.159 C 333.043 53.513,332.886 52.949,332.815 52.905 C 332.744 52.861,332.636 52.490,332.574 52.079 C 332.513 51.669,332.402 51.333,332.329 51.333 C 332.256 51.333,332.143 51.015,332.079 50.625 C 332.015 50.235,331.904 49.842,331.833 49.750 C 331.762 49.658,331.608 49.133,331.491 48.583 C 331.374 48.033,331.219 47.505,331.146 47.408 C 331.074 47.312,330.964 46.918,330.903 46.533 C 330.841 46.148,330.732 45.833,330.661 45.833 C 330.590 45.833,330.480 45.458,330.417 45.000 C 330.354 44.542,330.241 44.167,330.166 44.167 C 330.091 44.167,329.977 43.848,329.912 43.458 C 329.848 43.069,329.737 42.675,329.666 42.583 C 329.595 42.492,329.445 41.967,329.333 41.417 C 329.222 40.867,329.072 40.342,329.001 40.250 C 328.929 40.158,328.818 39.765,328.754 39.375 C 328.690 38.985,328.576 38.667,328.501 38.667 C 328.426 38.667,328.313 38.292,328.250 37.833 C 328.187 37.375,328.074 37.000,327.999 37.000 C 327.924 37.000,327.810 36.681,327.746 36.292 C 327.682 35.902,327.571 35.508,327.499 35.417 C 327.428 35.325,327.278 34.800,327.167 34.250 C 327.055 33.700,326.905 33.175,326.834 33.083 C 326.763 32.992,326.652 32.598,326.588 32.208 C 326.523 31.819,326.409 31.500,326.334 31.500 C 326.259 31.500,326.146 31.125,326.083 30.667 C 326.020 30.208,325.911 29.833,325.839 29.833 C 325.768 29.833,325.618 29.365,325.506 28.792 C 325.394 28.219,325.243 27.675,325.170 27.583 C 325.097 27.492,324.985 27.098,324.921 26.709 C 324.857 26.320,324.745 25.965,324.671 25.920 C 324.598 25.874,324.488 25.499,324.426 25.085 C 324.364 24.672,324.250 24.333,324.172 24.333 C 324.095 24.333,323.980 23.958,323.917 23.500 C 323.854 23.042,323.744 22.667,323.673 22.667 C 323.602 22.667,323.452 22.198,323.339 21.625 C 323.227 21.052,323.076 20.508,323.003 20.417 C 322.930 20.325,322.818 19.931,322.754 19.542 C 322.690 19.152,322.579 18.833,322.507 18.833 C 322.435 18.833,322.327 18.458,322.266 18.000 C 322.205 17.542,322.090 17.167,322.010 17.167 C 321.930 17.167,321.813 16.792,321.750 16.333 C 321.687 15.875,321.581 15.500,321.515 15.500 C 321.449 15.500,321.297 15.012,321.179 14.415 C 321.060 13.818,320.905 13.294,320.834 13.251 C 320.763 13.207,320.654 12.832,320.592 12.419 C 320.530 12.005,320.419 11.667,320.345 11.667 C 320.270 11.667,320.160 11.292,320.099 10.833 C 320.038 10.375,319.926 10.000,319.849 10.000 C 319.772 10.000,319.659 9.681,319.598 9.292 C 319.484 8.565,318.909 6.619,318.673 6.160 C 318.601 6.019,318.488 5.588,318.423 5.202 C 318.357 4.816,318.245 4.500,318.173 4.500 C 318.102 4.500,317.993 4.125,317.932 3.667 C 317.872 3.208,317.754 2.833,317.672 2.833 C 317.590 2.833,317.498 2.627,317.469 2.375 L 317.417 1.917 305.916 1.874 L 294.416 1.831 294.212 2.292 M342.000 30.661 C 342.000 58.991,342.006 59.491,342.322 59.661 C 342.670 59.847,358.280 59.910,358.958 59.728 L 359.333 59.628 359.336 50.522 C 359.337 45.099,359.402 41.316,359.496 41.168 C 359.642 40.937,360.524 39.973,363.102 37.225 C 363.663 36.628,364.450 35.736,364.852 35.244 C 365.697 34.211,365.759 34.182,365.907 34.770 C 365.967 35.010,366.107 35.308,366.217 35.431 C 366.685 35.955,366.799 36.129,366.915 36.493 C 366.982 36.705,367.291 37.312,367.602 37.842 C 367.912 38.372,368.167 38.881,368.167 38.972 C 368.167 39.064,368.223 39.164,368.292 39.194 C 368.360 39.225,368.642 39.700,368.917 40.250 C 369.192 40.800,369.454 41.287,369.500 41.333 C 369.546 41.379,369.769 41.773,369.997 42.208 C 370.224 42.644,370.459 43.000,370.520 43.000 C 370.581 43.000,370.682 43.205,370.745 43.457 C 370.808 43.708,370.910 43.952,370.972 43.998 C 371.033 44.045,371.308 44.533,371.583 45.082 C 371.858 45.631,372.177 46.180,372.292 46.302 C 372.406 46.424,372.500 46.625,372.500 46.748 C 372.500 46.871,372.556 46.997,372.625 47.028 C 372.694 47.058,372.975 47.533,373.250 48.083 C 373.525 48.633,373.806 49.108,373.875 49.139 C 373.944 49.169,374.000 49.289,374.000 49.405 C 374.000 49.521,374.150 49.789,374.333 50.000 C 374.517 50.211,374.667 50.485,374.667 50.609 C 374.667 50.732,374.734 50.833,374.815 50.833 C 374.897 50.833,375.014 51.035,375.076 51.282 C 375.138 51.528,375.334 51.933,375.511 52.182 C 375.688 52.431,375.833 52.717,375.833 52.817 C 375.833 52.918,375.902 53.000,375.987 53.000 C 376.071 53.000,376.190 53.225,376.250 53.500 C 376.310 53.775,376.429 54.000,376.513 54.000 C 376.598 54.000,376.667 54.103,376.667 54.230 C 376.667 54.356,376.775 54.549,376.908 54.660 C 377.041 54.770,377.239 55.135,377.349 55.472 C 377.459 55.808,377.594 56.121,377.649 56.167 C 377.815 56.304,378.166 56.887,378.376 57.375 C 378.484 57.627,378.626 57.833,378.690 57.833 C 378.754 57.833,378.853 58.045,378.910 58.304 C 378.967 58.562,379.231 59.012,379.497 59.304 L 379.981 59.833 388.366 59.831 C 392.977 59.830,396.919 59.784,397.125 59.728 C 397.484 59.632,397.698 58.833,397.364 58.833 C 397.290 58.833,397.126 58.571,397.000 58.250 C 396.874 57.929,396.718 57.667,396.654 57.667 C 396.589 57.667,396.487 57.470,396.427 57.230 C 396.366 56.990,396.227 56.692,396.117 56.569 C 395.614 56.006,395.507 55.834,395.405 55.431 C 395.346 55.194,395.245 55.000,395.182 55.000 C 395.119 55.000,394.972 54.737,394.856 54.417 C 394.740 54.096,394.581 53.833,394.502 53.833 C 394.424 53.833,394.310 53.608,394.250 53.333 C 394.190 53.058,394.090 52.833,394.028 52.832 C 393.967 52.831,393.834 52.663,393.734 52.457 C 393.633 52.251,393.267 51.558,392.920 50.917 C 392.572 50.275,392.205 49.582,392.102 49.376 C 392.000 49.171,391.866 49.002,391.805 49.001 C 391.743 49.001,391.644 48.775,391.583 48.500 C 391.523 48.225,391.414 48.000,391.340 48.000 C 391.267 48.000,391.109 47.756,390.988 47.458 C 390.868 47.160,390.727 46.879,390.676 46.833 C 390.625 46.788,390.397 46.394,390.170 45.958 C 389.943 45.523,389.705 45.167,389.642 45.167 C 389.578 45.167,389.477 44.942,389.417 44.667 C 389.356 44.392,389.253 44.167,389.187 44.167 C 389.121 44.167,388.972 43.904,388.856 43.583 C 388.740 43.262,388.581 43.000,388.502 43.000 C 388.424 43.000,388.310 42.775,388.250 42.500 C 388.190 42.225,388.071 42.000,387.987 42.000 C 387.902 42.000,387.833 41.893,387.833 41.762 C 387.833 41.631,387.738 41.425,387.623 41.304 C 387.507 41.182,387.217 40.708,386.979 40.250 C 386.153 38.660,385.916 38.250,385.792 38.194 C 385.723 38.164,385.667 38.038,385.667 37.915 C 385.667 37.791,385.573 37.591,385.458 37.470 C 385.344 37.349,385.025 36.781,384.750 36.209 C 384.475 35.636,384.194 35.167,384.125 35.167 C 384.056 35.167,384.000 35.060,384.000 34.929 C 384.000 34.798,383.906 34.591,383.792 34.470 C 383.677 34.349,383.358 33.781,383.083 33.209 C 382.808 32.636,382.535 32.167,382.476 32.167 C 382.418 32.167,382.322 31.979,382.265 31.750 C 382.207 31.521,382.093 31.333,382.010 31.333 C 381.927 31.333,381.810 31.108,381.750 30.833 C 381.690 30.558,381.580 30.333,381.507 30.333 C 381.434 30.333,381.275 30.090,381.155 29.792 C 381.034 29.494,380.894 29.212,380.843 29.167 C 380.792 29.121,380.564 28.727,380.337 28.292 C 380.110 27.856,379.872 27.500,379.808 27.500 C 379.745 27.500,379.644 27.275,379.583 27.000 C 379.523 26.725,379.420 26.500,379.354 26.500 C 379.288 26.500,379.139 26.238,379.023 25.917 C 378.907 25.596,378.748 25.333,378.669 25.333 C 378.591 25.333,378.477 25.108,378.417 24.833 C 378.356 24.558,378.238 24.333,378.153 24.333 C 378.069 24.333,378.000 24.230,378.000 24.104 C 378.000 23.977,377.887 23.781,377.750 23.667 C 377.322 23.312,377.447 23.117,379.375 21.129 C 381.036 19.417,384.240 16.046,386.055 14.100 C 386.406 13.724,387.331 12.742,388.111 11.917 C 388.891 11.092,390.329 9.568,391.306 8.531 C 392.284 7.493,393.683 6.023,394.417 5.264 C 396.628 2.975,397.167 2.353,397.167 2.087 C 397.167 1.863,396.159 1.833,388.594 1.833 L 380.022 1.833 379.386 2.615 C 379.036 3.045,378.525 3.635,378.250 3.926 C 377.743 4.463,376.496 5.878,375.477 7.074 C 375.169 7.436,374.729 7.936,374.500 8.186 C 374.271 8.435,373.746 9.032,373.333 9.512 C 372.921 9.992,372.319 10.665,371.995 11.008 C 371.671 11.351,371.259 11.834,371.078 12.082 C 370.898 12.329,370.394 12.900,369.958 13.350 C 369.523 13.800,369.167 14.218,369.167 14.279 C 369.167 14.340,368.848 14.699,368.458 15.075 C 368.069 15.451,367.536 16.044,367.274 16.392 C 367.012 16.740,366.562 17.272,366.274 17.573 C 365.743 18.130,364.499 19.540,363.477 20.744 C 363.169 21.107,362.804 21.526,362.667 21.676 C 362.529 21.826,362.004 22.422,361.500 23.000 C 360.996 23.579,360.302 24.350,359.958 24.713 L 359.333 25.374 359.333 13.603 L 359.333 1.833 350.667 1.833 L 342.000 1.833 342.000 30.661 M255.307 10.672 C 256.228 10.766,257.192 10.954,257.449 11.088 C 257.706 11.222,258.048 11.332,258.208 11.332 C 258.369 11.333,258.500 11.408,258.500 11.500 C 258.500 11.592,258.599 11.667,258.720 11.667 C 259.325 11.667,260.667 13.474,260.667 14.289 C 260.667 14.497,260.742 14.667,260.833 14.667 C 260.940 14.667,261.000 16.219,261.000 18.990 C 261.000 21.693,260.938 23.352,260.833 23.417 C 260.742 23.473,260.667 23.673,260.667 23.860 C 260.667 24.823,259.415 26.348,258.419 26.598 C 258.189 26.655,258.000 26.765,258.000 26.841 C 258.000 26.917,257.644 27.032,257.208 27.096 C 256.773 27.160,256.363 27.296,256.298 27.397 C 256.217 27.523,254.470 27.600,250.757 27.642 L 245.333 27.704 245.333 19.102 L 245.333 10.500 249.482 10.500 C 251.764 10.500,254.385 10.577,255.307 10.672 M305.689 14.417 C 305.748 14.508,305.848 14.977,305.913 15.458 C 305.978 15.940,306.091 16.333,306.163 16.333 C 306.236 16.333,306.346 16.745,306.409 17.247 C 306.472 17.750,306.591 18.203,306.673 18.254 C 306.756 18.305,306.873 18.719,306.933 19.174 C 306.994 19.628,307.095 20.000,307.158 20.000 C 307.221 20.000,307.371 20.601,307.490 21.336 C 307.610 22.071,307.766 22.708,307.838 22.753 C 307.910 22.797,308.020 23.209,308.083 23.667 C 308.146 24.125,308.259 24.500,308.333 24.500 C 308.407 24.500,308.519 24.950,308.583 25.500 C 308.647 26.050,308.762 26.500,308.838 26.500 C 308.914 26.500,309.028 26.912,309.091 27.417 C 309.154 27.921,309.263 28.333,309.333 28.333 C 309.403 28.333,309.558 28.933,309.677 29.667 C 309.796 30.400,309.946 31.000,310.011 31.000 C 310.075 31.000,310.180 31.412,310.243 31.917 C 310.306 32.421,310.417 32.833,310.491 32.833 C 310.564 32.833,310.676 33.226,310.739 33.705 C 310.803 34.185,310.912 34.616,310.982 34.664 C 311.051 34.711,311.237 35.350,311.393 36.083 C 311.550 36.817,311.763 37.810,311.867 38.292 C 311.971 38.773,312.118 39.167,312.195 39.167 C 312.271 39.167,312.333 39.392,312.333 39.667 L 312.333 40.167 305.248 40.167 L 298.163 40.167 298.273 39.458 C 298.334 39.069,298.438 38.712,298.505 38.667 C 298.572 38.621,298.680 38.190,298.745 37.709 C 298.811 37.227,298.925 36.797,298.998 36.751 C 299.072 36.706,299.227 36.031,299.343 35.251 C 299.459 34.471,299.610 33.833,299.678 33.833 C 299.746 33.833,299.854 33.458,299.917 33.000 C 299.980 32.542,300.092 32.129,300.167 32.083 C 300.241 32.037,300.354 31.625,300.417 31.167 C 300.480 30.709,300.594 30.295,300.671 30.248 C 300.747 30.200,300.862 29.749,300.924 29.245 C 300.987 28.741,301.096 28.294,301.166 28.250 C 301.236 28.207,301.390 27.571,301.510 26.836 C 301.629 26.101,301.780 25.500,301.844 25.500 C 301.909 25.500,302.013 25.089,302.076 24.586 C 302.139 24.083,302.255 23.631,302.335 23.582 C 302.415 23.533,302.532 23.138,302.595 22.704 C 302.657 22.271,302.768 21.842,302.840 21.750 C 302.912 21.658,303.051 21.208,303.149 20.750 C 303.247 20.292,303.454 19.317,303.610 18.583 C 303.765 17.850,303.946 17.212,304.012 17.167 C 304.079 17.121,304.187 16.652,304.252 16.125 C 304.318 15.598,304.429 15.167,304.498 15.167 C 304.567 15.167,304.674 14.848,304.735 14.458 C 304.797 14.069,304.937 13.540,305.048 13.282 L 305.250 12.815 305.417 13.532 C 305.508 13.927,305.631 14.325,305.689 14.417 " stroke="none" fill="#040404" fill-rule="evenodd"></path><path id="path1" d="" stroke="none" fill="#080404" fill-rule="evenodd"></path><path id="path2" d="" stroke="none" fill="#080404" fill-rule="evenodd"></path><path id="path3" d="" stroke="none" fill="#080404" fill-rule="evenodd"></path><path id="path4" d="" stroke="none" fill="#080404" fill-rule="evenodd"></path></g></svg>