<svg id="svg" version="1.1" xmlns="http://www.w3.org/2000/svg" xmlns:xlink="http://www.w3.org/1999/xlink" width="400" height="60.947810437912416" viewBox="0, 0, 400,60.947810437912416"><g id="svgg"><path id="path0" d="M134.779 1.110 C 134.711 1.178,134.339 1.248,133.953 1.267 C 133.566 1.285,132.575 1.352,131.750 1.417 C 130.925 1.481,130.103 1.529,129.924 1.525 C 129.745 1.520,129.520 1.578,129.424 1.654 C 129.328 1.730,128.819 1.844,128.292 1.908 C 127.765 1.972,127.333 2.094,127.333 2.179 C 127.333 2.264,127.254 2.333,127.157 2.333 C 127.060 2.333,127.037 2.240,127.105 2.125 C 127.201 1.966,127.174 1.961,126.990 2.104 C 126.858 2.207,126.394 2.343,125.958 2.406 C 125.463 2.478,125.167 2.604,125.167 2.745 C 125.167 2.887,125.045 2.937,124.833 2.882 C 124.650 2.834,124.500 2.871,124.500 2.965 C 124.500 3.059,124.350 3.096,124.167 3.048 C 123.967 2.996,123.833 3.043,123.833 3.165 C 123.833 3.277,123.727 3.328,123.597 3.278 C 123.467 3.229,123.320 3.294,123.270 3.424 C 123.220 3.555,123.071 3.619,122.938 3.569 C 122.806 3.518,122.380 3.622,121.992 3.800 C 121.592 3.983,121.385 4.156,121.514 4.199 C 121.658 4.247,121.606 4.310,121.370 4.372 C 121.132 4.434,121.039 4.406,121.109 4.292 C 121.175 4.184,121.138 4.165,121.014 4.241 C 120.902 4.310,120.855 4.483,120.909 4.624 C 120.987 4.827,120.959 4.840,120.776 4.688 C 120.598 4.540,120.496 4.554,120.335 4.748 C 120.220 4.887,120.004 5.001,119.855 5.003 C 119.617 5.005,119.615 5.027,119.833 5.184 C 120.033 5.326,120.005 5.345,119.695 5.277 C 119.411 5.214,119.121 5.355,118.614 5.804 C 117.537 6.756,117.500 6.796,117.497 7.030 C 117.496 7.192,117.453 7.185,117.333 7.000 C 117.194 6.784,117.171 6.788,117.169 7.030 C 117.168 7.185,117.035 7.353,116.875 7.405 C 116.627 7.485,116.082 8.231,115.981 8.628 C 115.964 8.695,115.830 8.841,115.683 8.953 C 115.537 9.065,115.486 9.158,115.571 9.161 C 115.655 9.164,115.570 9.335,115.380 9.542 C 114.898 10.066,114.276 11.596,114.381 11.998 C 114.429 12.182,114.401 12.375,114.318 12.426 C 114.235 12.478,114.167 12.632,114.167 12.770 C 114.167 12.907,114.242 12.973,114.333 12.917 C 114.425 12.860,114.500 12.890,114.500 12.984 C 114.500 13.078,114.355 13.233,114.178 13.327 C 113.964 13.442,113.860 13.666,113.870 13.994 C 113.877 14.266,113.947 14.449,114.025 14.401 C 114.103 14.353,114.167 14.435,114.167 14.583 C 114.167 14.732,114.110 14.818,114.042 14.776 C 113.973 14.733,113.931 22.171,113.950 31.305 C 113.973 43.022,114.036 47.929,114.163 47.971 C 114.273 48.008,114.302 48.249,114.236 48.599 C 114.174 48.929,114.198 49.167,114.292 49.167 C 114.381 49.167,114.419 49.348,114.377 49.569 C 114.322 49.856,114.400 50.024,114.650 50.158 C 114.843 50.261,114.999 50.436,114.997 50.548 C 114.996 50.677,114.939 50.661,114.840 50.505 C 114.755 50.370,114.640 50.305,114.584 50.360 C 114.529 50.415,114.597 50.573,114.734 50.710 C 114.872 50.848,114.946 50.999,114.899 51.046 C 114.807 51.137,115.401 52.325,115.619 52.487 C 115.691 52.540,115.831 52.733,115.930 52.917 C 116.029 53.100,116.274 53.324,116.474 53.416 C 116.674 53.507,116.804 53.670,116.762 53.780 C 116.681 53.991,117.880 55.167,118.177 55.167 C 118.274 55.167,118.299 55.253,118.234 55.359 C 118.165 55.470,118.188 55.507,118.287 55.445 C 118.382 55.386,118.656 55.535,118.897 55.775 C 119.282 56.161,119.334 56.175,119.337 55.898 C 119.340 55.678,119.420 55.744,119.603 56.114 C 119.754 56.421,120.086 56.733,120.391 56.853 C 120.680 56.968,120.992 57.091,121.083 57.127 C 121.175 57.163,121.148 57.121,121.024 57.034 C 120.866 56.923,120.853 56.841,120.982 56.761 C 121.084 56.698,121.167 56.723,121.167 56.816 C 121.167 57.098,121.993 57.832,122.341 57.858 C 122.520 57.872,122.760 57.891,122.875 57.900 C 122.990 57.909,123.158 58.002,123.250 58.107 C 123.455 58.342,124.500 58.499,124.500 58.295 C 124.500 58.213,124.580 58.197,124.678 58.257 C 124.776 58.318,124.822 58.457,124.779 58.567 C 124.736 58.681,124.856 58.776,125.060 58.787 C 125.551 58.816,125.828 58.888,126.458 59.149 C 126.875 59.322,127.055 59.329,127.235 59.179 C 127.415 59.030,127.499 59.031,127.594 59.184 C 127.678 59.320,127.648 59.341,127.500 59.250 C 127.357 59.162,127.322 59.180,127.398 59.303 C 127.462 59.407,127.736 59.466,128.007 59.434 C 128.278 59.403,128.500 59.434,128.500 59.504 C 128.500 59.574,128.623 59.678,128.774 59.736 C 128.996 59.821,129.010 59.796,128.848 59.601 C 128.685 59.405,128.704 59.371,128.949 59.417 C 129.115 59.449,129.325 59.481,129.417 59.490 C 129.508 59.498,129.471 59.578,129.333 59.667 C 128.956 59.910,129.757 59.886,130.219 59.639 C 130.544 59.467,130.559 59.475,130.363 59.712 C 130.166 59.951,130.231 59.976,130.988 59.948 C 131.453 59.931,131.834 59.977,131.833 60.052 C 131.833 60.126,131.926 60.129,132.039 60.059 C 132.327 59.882,132.836 59.861,132.731 60.031 C 132.683 60.109,133.112 60.154,133.684 60.131 C 134.390 60.104,134.747 60.156,134.793 60.295 C 134.830 60.408,134.928 60.500,135.009 60.500 C 135.090 60.500,135.117 60.397,135.068 60.271 C 135.004 60.103,135.093 60.064,135.405 60.124 C 135.638 60.168,135.795 60.260,135.753 60.329 C 135.711 60.397,136.569 60.461,137.660 60.472 C 139.408 60.489,139.653 60.457,139.719 60.204 C 139.789 59.937,139.796 59.938,139.814 60.210 C 139.831 60.472,139.974 60.494,141.125 60.415 C 144.058 60.213,144.756 60.125,144.868 59.944 C 144.956 59.801,145.036 59.802,145.182 59.949 C 145.332 60.099,145.478 60.079,145.808 59.864 C 146.047 59.708,146.180 59.676,146.109 59.792 C 145.937 60.070,146.524 60.070,146.824 59.792 C 147.005 59.624,147.025 59.626,146.925 59.802 C 146.828 59.972,146.926 59.998,147.359 59.918 C 149.148 59.585,149.500 59.467,149.500 59.197 C 149.500 58.987,149.551 58.999,149.762 59.260 C 149.907 59.438,149.976 59.487,149.916 59.369 C 149.836 59.212,149.928 59.177,150.263 59.238 C 150.812 59.338,151.126 59.186,150.809 58.973 C 150.665 58.876,150.808 58.860,151.203 58.928 C 151.666 59.008,151.893 58.964,152.102 58.755 C 152.327 58.530,152.409 58.518,152.522 58.696 C 152.627 58.862,152.662 58.866,152.664 58.708 C 152.666 58.594,152.842 58.500,153.056 58.500 C 153.572 58.500,153.709 58.337,153.457 58.025 C 153.290 57.819,153.292 57.795,153.466 57.899 C 153.584 57.970,153.790 57.938,153.924 57.827 C 154.095 57.685,154.167 57.681,154.167 57.813 C 154.167 57.916,154.279 58.000,154.417 58.000 C 154.554 58.000,154.667 57.933,154.667 57.852 C 154.667 57.770,154.798 57.714,154.958 57.727 C 155.148 57.742,155.241 57.642,155.224 57.441 C 155.206 57.231,155.252 57.186,155.367 57.301 C 155.650 57.584,156.563 57.193,156.315 56.895 C 156.160 56.707,156.170 56.678,156.366 56.754 C 156.502 56.806,156.709 56.733,156.827 56.591 C 157.068 56.301,157.413 56.236,157.242 56.512 C 157.182 56.611,157.290 56.593,157.483 56.472 C 157.675 56.352,157.833 56.192,157.833 56.117 C 157.833 56.042,157.909 56.027,158.001 56.084 C 158.093 56.141,158.214 56.071,158.269 55.927 C 158.324 55.784,158.471 55.667,158.595 55.667 C 158.868 55.667,159.833 54.753,159.833 54.496 C 159.833 54.396,159.900 54.355,159.981 54.405 C 160.062 54.455,160.119 54.375,160.106 54.226 C 160.094 54.077,160.221 53.934,160.389 53.907 C 160.833 53.837,161.184 53.305,160.963 53.038 C 160.829 52.877,160.852 52.851,161.060 52.931 C 161.217 52.991,161.333 52.953,161.333 52.841 C 161.333 52.734,161.397 52.687,161.476 52.735 C 161.554 52.784,161.581 52.627,161.535 52.387 C 161.478 52.086,161.511 51.987,161.643 52.068 C 161.747 52.133,161.833 52.102,161.833 52.000 C 161.833 51.898,161.900 51.855,161.981 51.905 C 162.062 51.955,162.171 51.836,162.222 51.641 C 162.292 51.374,162.267 51.333,162.124 51.476 C 162.019 51.581,161.855 51.666,161.758 51.666 C 161.662 51.665,161.796 51.524,162.055 51.353 C 162.315 51.182,162.521 50.995,162.514 50.938 C 162.469 50.595,162.523 50.494,162.695 50.601 C 162.825 50.681,162.855 50.631,162.786 50.449 C 162.728 50.300,162.737 50.143,162.804 50.101 C 162.872 50.060,162.946 49.779,162.969 49.478 C 162.992 49.176,163.070 48.889,163.142 48.840 C 163.214 48.790,163.284 48.487,163.298 48.167 C 163.313 47.846,163.353 47.433,163.388 47.250 C 163.424 47.067,163.370 46.862,163.268 46.794 C 163.137 46.707,163.141 46.671,163.282 46.669 C 163.628 46.665,163.587 37.903,163.240 37.769 C 162.920 37.646,147.791 37.630,147.472 37.752 C 147.293 37.820,147.256 38.761,147.279 42.565 C 147.303 46.311,147.259 47.437,147.068 47.990 C 146.936 48.375,146.872 48.761,146.926 48.849 C 146.980 48.936,146.925 48.988,146.804 48.962 C 146.682 48.937,146.594 49.046,146.606 49.208 C 146.619 49.369,146.563 49.500,146.481 49.500 C 146.259 49.500,146.303 49.962,146.533 50.039 C 146.689 50.091,146.689 50.133,146.533 50.229 C 146.423 50.297,146.333 50.269,146.333 50.167 C 146.333 50.064,146.259 50.026,146.169 50.082 C 146.072 50.142,146.048 50.070,146.110 49.906 C 146.169 49.754,145.977 49.863,145.683 50.150 C 145.390 50.437,145.186 50.730,145.230 50.801 C 145.274 50.872,145.148 50.943,144.949 50.958 C 144.663 50.980,144.639 50.953,144.835 50.829 C 144.972 50.742,145.008 50.672,144.917 50.672 C 144.604 50.672,144.290 50.962,144.404 51.146 C 144.474 51.260,144.423 51.293,144.267 51.233 C 143.906 51.095,143.564 51.333,143.857 51.518 C 144.011 51.616,144.019 51.662,143.883 51.664 C 143.773 51.666,143.607 51.535,143.513 51.375 C 143.357 51.107,143.343 51.110,143.336 51.417 C 143.330 51.694,143.301 51.708,143.164 51.500 C 143.061 51.343,142.953 51.312,142.875 51.417 C 142.695 51.656,141.943 52.060,142.076 51.846 C 142.147 51.731,141.971 51.667,141.583 51.667 C 141.145 51.667,141.015 51.724,141.105 51.875 C 141.201 52.034,141.173 52.039,140.990 51.898 C 140.717 51.688,139.455 51.793,139.592 52.014 C 139.641 52.094,139.303 52.132,138.841 52.100 C 138.378 52.068,138.000 52.111,138.000 52.197 C 138.000 52.283,137.928 52.309,137.841 52.254 C 137.753 52.200,137.723 52.046,137.775 51.911 C 137.845 51.729,137.738 51.667,137.351 51.667 C 137.049 51.667,136.832 51.754,136.831 51.875 C 136.829 52.020,136.782 52.010,136.677 51.844 C 136.545 51.636,136.487 51.636,136.231 51.844 C 136.047 51.994,135.983 52.005,136.061 51.875 C 136.139 51.746,136.093 51.667,135.940 51.667 C 135.805 51.667,135.659 51.573,135.616 51.458 C 135.562 51.313,135.463 51.348,135.290 51.573 C 135.046 51.890,135.040 51.890,134.932 51.549 C 134.833 51.236,133.889 50.872,133.446 50.976 C 133.370 50.994,133.356 50.931,133.414 50.837 C 133.472 50.744,133.446 50.667,133.355 50.667 C 133.265 50.667,133.071 50.547,132.925 50.401 C 132.779 50.256,132.530 50.117,132.372 50.094 C 132.213 50.071,132.083 49.971,132.083 49.872 C 132.083 49.774,131.911 49.495,131.700 49.253 C 131.005 48.453,131.005 48.451,131.007 30.883 C 131.009 17.186,130.967 13.745,130.796 13.622 C 130.647 13.514,130.674 13.498,130.887 13.567 C 131.114 13.640,131.176 13.591,131.131 13.374 C 131.098 13.214,131.186 12.984,131.327 12.863 C 131.546 12.674,131.547 12.658,131.333 12.752 C 131.196 12.813,131.271 12.699,131.500 12.500 C 131.729 12.301,131.823 12.186,131.708 12.245 C 131.594 12.305,131.500 12.279,131.500 12.188 C 131.500 12.097,131.655 11.973,131.845 11.913 C 132.060 11.845,132.155 11.711,132.097 11.560 C 132.046 11.426,132.060 11.351,132.129 11.393 C 132.198 11.436,132.441 11.370,132.669 11.247 L 133.083 11.023 132.667 10.848 C 132.301 10.693,132.325 10.684,132.864 10.769 C 133.415 10.856,133.469 10.833,133.391 10.535 C 133.343 10.353,133.377 10.159,133.467 10.104 C 133.556 10.049,133.619 10.126,133.606 10.276 C 133.571 10.690,133.939 10.727,134.319 10.348 C 134.508 10.159,134.772 10.051,134.913 10.105 C 135.052 10.159,135.167 10.122,135.167 10.023 C 135.167 9.924,135.280 9.887,135.419 9.940 C 135.605 10.012,135.644 9.957,135.570 9.727 C 135.490 9.483,135.505 9.468,135.638 9.655 C 135.843 9.945,136.339 10.036,136.587 9.830 C 136.848 9.613,139.041 9.509,140.458 9.646 C 141.123 9.710,141.667 9.699,141.667 9.622 C 141.667 9.544,141.743 9.527,141.836 9.585 C 141.929 9.643,141.961 9.762,141.906 9.850 C 141.847 9.946,142.049 9.984,142.408 9.945 C 142.738 9.908,143.048 9.943,143.097 10.023 C 143.146 10.102,143.407 10.167,143.677 10.167 C 143.946 10.167,144.167 10.239,144.167 10.328 C 144.167 10.417,144.291 10.442,144.444 10.383 C 144.632 10.311,144.682 10.340,144.600 10.474 C 144.520 10.603,144.653 10.706,144.986 10.772 C 145.266 10.828,145.454 10.940,145.404 11.020 C 145.354 11.101,145.374 11.172,145.448 11.179 C 145.523 11.186,145.720 11.218,145.888 11.250 C 146.111 11.292,146.167 11.233,146.096 11.029 C 146.025 10.826,146.069 10.840,146.257 11.083 C 146.496 11.393,146.487 11.424,146.132 11.519 C 145.772 11.616,145.784 11.637,146.333 11.888 C 146.654 12.034,146.823 12.157,146.708 12.160 C 146.594 12.164,146.500 12.235,146.500 12.318 C 146.500 12.401,146.669 12.432,146.875 12.387 C 147.098 12.338,147.174 12.361,147.063 12.444 C 146.780 12.655,146.982 13.664,147.311 13.680 C 147.461 13.687,147.508 13.725,147.417 13.763 C 147.311 13.808,147.264 15.247,147.287 17.708 L 147.324 21.583 155.245 21.627 C 160.782 21.657,163.167 21.616,163.167 21.492 C 163.167 21.394,163.242 21.360,163.333 21.417 C 163.442 21.484,163.500 20.360,163.500 18.167 C 163.500 15.974,163.442 14.849,163.333 14.917 C 163.242 14.973,163.167 14.940,163.167 14.843 C 163.167 14.746,163.226 14.667,163.298 14.667 C 163.370 14.667,163.440 14.517,163.454 14.333 C 163.477 14.030,163.317 13.920,162.946 13.984 C 162.870 13.998,162.857 13.930,162.916 13.835 C 162.975 13.739,163.093 13.704,163.178 13.757 C 163.264 13.810,163.333 13.728,163.333 13.575 C 163.333 13.397,163.244 13.332,163.083 13.394 C 162.946 13.446,162.833 13.417,162.833 13.328 C 162.833 13.239,162.930 13.167,163.048 13.167 C 163.383 13.167,163.349 12.512,163.002 12.296 C 162.765 12.148,162.729 12.029,162.851 11.801 C 162.956 11.604,162.954 11.500,162.844 11.500 C 162.752 11.500,162.721 11.384,162.776 11.243 C 162.835 11.088,162.793 11.006,162.668 11.035 C 162.541 11.064,162.452 10.887,162.439 10.579 C 162.404 9.779,161.376 8.301,160.938 8.420 C 160.623 8.505,160.616 8.495,160.877 8.332 C 161.188 8.137,160.930 7.667,160.512 7.667 C 160.414 7.667,160.333 7.558,160.333 7.426 C 160.333 7.268,160.205 7.209,159.958 7.253 C 159.624 7.313,159.613 7.298,159.863 7.109 C 160.147 6.894,159.660 6.359,159.279 6.469 C 159.204 6.490,159.177 6.450,159.220 6.379 C 159.342 6.178,158.937 5.882,158.606 5.930 C 158.415 5.959,158.338 5.894,158.393 5.751 C 158.446 5.615,158.256 5.422,157.906 5.256 C 157.591 5.107,157.333 4.917,157.333 4.835 C 157.333 4.753,157.181 4.715,156.996 4.751 C 156.810 4.787,156.702 4.745,156.755 4.658 C 156.809 4.571,156.736 4.500,156.593 4.500 C 156.450 4.500,156.333 4.433,156.333 4.351 C 156.333 4.269,156.217 4.158,156.075 4.103 C 155.926 4.046,155.859 4.074,155.918 4.169 C 156.120 4.496,155.679 4.324,155.439 3.982 C 155.304 3.789,155.112 3.681,155.013 3.742 C 154.914 3.803,154.833 3.769,154.833 3.666 C 154.833 3.563,154.691 3.503,154.518 3.531 C 154.345 3.560,154.043 3.439,153.847 3.262 C 153.589 3.029,153.442 2.991,153.309 3.124 C 153.087 3.346,152.679 3.214,152.312 2.801 C 152.162 2.633,151.926 2.539,151.787 2.592 C 151.648 2.646,151.484 2.609,151.424 2.511 C 151.363 2.413,151.201 2.333,151.064 2.333 C 150.926 2.333,150.852 2.396,150.899 2.472 C 150.947 2.549,150.879 2.611,150.750 2.611 C 150.621 2.611,150.553 2.549,150.601 2.472 C 150.648 2.396,150.578 2.333,150.446 2.333 C 150.313 2.333,149.990 2.221,149.727 2.084 C 149.465 1.947,149.005 1.835,148.706 1.834 C 148.407 1.834,148.011 1.740,147.826 1.625 C 147.549 1.453,147.462 1.461,147.331 1.667 C 147.214 1.850,147.171 1.858,147.169 1.697 C 147.168 1.557,147.002 1.497,146.708 1.531 C 146.435 1.562,146.268 1.672,146.296 1.804 C 146.321 1.925,146.268 1.979,146.178 1.924 C 146.088 1.868,146.052 1.726,146.097 1.608 C 146.158 1.448,145.883 1.387,144.994 1.366 C 144.343 1.351,143.726 1.287,143.624 1.224 C 143.383 1.075,135.677 1.048,135.769 1.197 C 135.807 1.259,135.761 1.359,135.665 1.418 C 135.570 1.477,135.512 1.427,135.538 1.308 C 135.588 1.070,134.978 0.911,134.779 1.110 M173.042 1.943 C 172.786 2.047,172.731 59.250,172.986 59.408 C 173.070 59.460,183.439 59.502,196.028 59.502 L 218.917 59.503 218.964 55.543 C 218.989 53.365,218.969 51.415,218.919 51.208 L 218.827 50.833 204.497 50.833 L 190.167 50.833 190.167 42.333 L 190.167 33.833 201.583 33.833 L 213.000 33.833 213.000 29.583 L 213.000 25.333 201.583 25.333 L 190.167 25.333 190.167 17.918 L 190.167 10.502 204.542 10.459 L 218.917 10.417 218.917 6.167 L 218.917 1.917 196.083 1.888 C 183.525 1.872,173.156 1.897,173.042 1.943 M228.333 2.000 C 228.501 2.108,228.514 2.162,228.375 2.164 C 228.208 2.166,228.174 7.956,228.208 30.836 L 228.250 59.506 236.792 59.545 L 245.333 59.583 245.333 47.860 L 245.333 36.137 249.947 36.186 C 253.534 36.223,254.576 36.187,254.631 36.025 C 254.680 35.878,254.768 35.905,254.928 36.116 C 255.110 36.356,255.158 36.366,255.164 36.167 C 255.171 35.952,255.193 35.951,255.323 36.156 C 255.441 36.342,255.527 36.352,255.711 36.199 C 255.841 36.091,255.991 36.047,256.045 36.101 C 256.251 36.307,257.132 36.270,257.051 36.058 C 256.992 35.905,257.129 35.875,257.567 35.946 C 257.920 36.004,258.260 35.963,258.399 35.848 C 258.580 35.697,258.654 35.702,258.721 35.868 C 258.784 36.027,258.810 36.030,258.820 35.879 C 258.830 35.718,258.928 35.717,259.268 35.872 C 259.632 36.038,259.736 36.025,259.903 35.797 C 260.039 35.610,260.178 35.572,260.343 35.676 C 260.686 35.893,260.873 35.869,260.735 35.625 C 260.641 35.458,260.663 35.458,260.842 35.625 C 261.110 35.873,262.067 35.910,261.917 35.667 C 261.830 35.526,262.428 35.410,262.875 35.480 C 262.944 35.491,263.000 35.425,263.000 35.333 C 263.000 35.242,263.079 35.167,263.177 35.167 C 263.274 35.167,263.307 35.242,263.250 35.333 C 263.193 35.425,263.268 35.500,263.417 35.500 C 263.565 35.500,263.651 35.442,263.607 35.372 C 263.564 35.301,263.822 35.272,264.181 35.306 C 264.551 35.341,264.833 35.295,264.833 35.200 C 264.833 35.107,264.984 35.071,265.168 35.119 C 265.351 35.167,265.616 35.111,265.756 34.995 C 265.896 34.879,266.215 34.769,266.464 34.751 C 267.269 34.694,267.354 34.669,267.263 34.521 C 267.183 34.392,268.382 34.078,268.708 34.142 C 268.777 34.156,268.833 34.057,268.833 33.922 C 268.833 33.770,268.931 33.714,269.090 33.775 C 269.230 33.830,269.506 33.733,269.702 33.562 C 269.897 33.390,270.004 33.341,269.940 33.451 C 269.861 33.586,269.975 33.573,270.286 33.411 C 270.541 33.278,270.852 33.168,270.976 33.168 C 271.109 33.167,271.163 33.063,271.106 32.917 C 271.014 32.675,271.263 32.583,271.808 32.658 C 271.932 32.675,271.984 32.609,271.924 32.511 C 271.863 32.413,271.893 32.324,271.990 32.313 C 272.087 32.301,272.244 32.282,272.339 32.271 C 272.434 32.259,272.566 32.170,272.631 32.071 C 272.696 31.973,272.881 31.844,273.042 31.785 C 273.202 31.726,273.333 31.562,273.333 31.422 C 273.333 31.282,273.413 31.167,273.510 31.167 C 273.607 31.167,273.633 31.253,273.567 31.359 C 273.495 31.476,273.522 31.506,273.634 31.437 C 273.735 31.374,273.774 31.205,273.718 31.061 C 273.645 30.870,273.703 30.816,273.934 30.862 C 274.246 30.924,275.333 30.096,275.333 29.797 C 275.333 29.714,275.259 29.693,275.169 29.749 C 275.072 29.808,275.047 29.737,275.108 29.578 C 275.179 29.394,275.251 29.367,275.330 29.494 C 275.505 29.778,275.840 29.300,275.759 28.882 C 275.707 28.611,275.761 28.556,276.013 28.622 C 276.243 28.682,276.335 28.618,276.341 28.394 C 276.345 28.223,276.457 27.858,276.589 27.583 C 276.801 27.144,276.820 27.134,276.747 27.500 L 276.665 27.917 276.861 27.500 C 277.417 26.315,277.529 25.981,277.442 25.757 C 277.390 25.621,277.423 25.464,277.515 25.407 C 277.624 25.340,277.615 25.221,277.488 25.068 C 277.347 24.899,277.345 24.833,277.480 24.833 C 277.582 24.833,277.648 24.740,277.625 24.625 C 277.602 24.510,277.677 24.435,277.792 24.458 C 277.927 24.485,278.000 24.292,278.000 23.907 C 278.000 23.581,277.938 23.352,277.861 23.399 C 277.785 23.447,277.722 23.379,277.722 23.250 C 277.722 23.121,277.766 23.042,277.819 23.075 C 277.873 23.108,277.904 21.211,277.890 18.859 C 277.868 15.389,277.821 14.592,277.640 14.627 C 277.507 14.654,277.535 14.579,277.708 14.442 C 278.031 14.189,278.098 13.833,277.823 13.833 C 277.726 13.833,277.701 13.920,277.766 14.026 C 277.843 14.150,277.811 14.173,277.678 14.090 C 277.547 14.010,277.529 13.904,277.629 13.804 C 277.893 13.541,277.606 12.576,277.281 12.632 C 277.127 12.659,277.000 12.603,277.000 12.507 C 277.000 12.412,277.112 12.333,277.250 12.333 C 277.559 12.333,277.576 11.933,277.280 11.637 C 277.038 11.396,277.000 11.295,277.000 10.907 C 277.000 10.751,276.922 10.695,276.805 10.768 C 276.673 10.849,276.645 10.797,276.718 10.606 C 276.790 10.419,276.659 10.148,276.333 9.807 C 276.062 9.523,275.880 9.225,275.930 9.145 C 275.979 9.065,275.907 9.000,275.770 9.000 C 275.632 9.000,275.466 8.913,275.401 8.808 C 275.320 8.676,275.356 8.661,275.516 8.760 C 275.645 8.839,275.491 8.577,275.175 8.178 C 274.859 7.778,274.466 7.416,274.302 7.373 C 274.138 7.331,274.038 7.240,274.080 7.173 C 274.121 7.105,273.952 6.945,273.704 6.817 C 273.456 6.688,273.085 6.406,272.881 6.189 C 272.656 5.951,272.405 5.834,272.246 5.895 C 272.093 5.954,272.026 5.927,272.085 5.830 C 272.142 5.739,272.052 5.614,271.886 5.553 C 271.719 5.491,271.546 5.398,271.500 5.345 C 271.266 5.078,270.634 4.813,270.745 5.029 C 270.807 5.151,270.758 5.130,270.637 4.983 C 270.515 4.836,270.228 4.658,269.999 4.587 C 269.771 4.517,269.491 4.385,269.377 4.294 C 269.264 4.204,269.054 4.174,268.910 4.229 C 268.760 4.287,268.693 4.260,268.751 4.165 C 268.807 4.074,268.699 4.000,268.510 4.000 C 268.321 4.000,268.167 3.924,268.167 3.830 C 268.167 3.737,267.983 3.693,267.760 3.734 C 267.536 3.775,267.330 3.746,267.301 3.670 C 267.273 3.594,267.063 3.506,266.833 3.474 C 266.604 3.443,266.363 3.342,266.297 3.250 C 266.219 3.142,266.048 3.163,265.814 3.308 C 265.501 3.502,265.465 3.499,265.547 3.284 C 265.659 2.994,264.655 2.764,264.479 3.039 C 264.414 3.142,264.333 3.134,264.261 3.018 C 264.198 2.916,264.008 2.833,263.837 2.833 C 263.667 2.833,263.496 2.740,263.458 2.625 C 263.404 2.464,263.321 2.472,263.098 2.656 C 262.860 2.852,262.784 2.856,262.672 2.675 C 262.585 2.534,262.130 2.440,261.423 2.415 C 260.811 2.394,260.225 2.292,260.122 2.188 C 259.838 1.904,259.368 1.962,259.282 2.292 C 259.210 2.567,259.204 2.566,259.186 2.288 C 259.167 1.998,258.610 1.976,258.169 2.248 C 258.076 2.306,258.000 2.274,258.000 2.177 C 258.000 2.079,257.815 2.000,257.589 2.000 C 257.268 2.000,257.201 2.063,257.287 2.286 C 257.369 2.501,257.296 2.478,256.990 2.193 C 256.549 1.782,254.883 1.696,254.628 2.070 C 254.545 2.192,254.504 2.182,254.503 2.042 C 254.501 1.927,254.350 1.833,254.167 1.833 C 253.981 1.833,253.833 1.944,253.833 2.083 C 253.833 2.221,253.761 2.333,253.672 2.333 C 253.583 2.333,253.554 2.221,253.606 2.083 C 253.691 1.862,252.211 1.834,240.893 1.836 C 232.561 1.838,228.171 1.895,228.333 2.000 M294.225 2.292 C 293.871 3.143,293.802 3.710,294.032 3.857 C 294.196 3.960,294.177 3.996,293.958 3.997 C 293.786 3.999,293.658 4.136,293.646 4.333 C 293.620 4.741,293.606 4.795,293.358 5.395 C 293.249 5.658,293.145 6.052,293.127 6.270 C 293.109 6.488,293.027 6.667,292.944 6.667 C 292.862 6.667,292.834 6.817,292.882 7.000 C 292.930 7.183,292.901 7.333,292.818 7.333 C 292.735 7.333,292.667 7.468,292.667 7.633 C 292.667 7.798,292.601 8.005,292.522 8.092 C 292.310 8.323,292.122 9.214,292.309 9.098 C 292.395 9.045,292.510 9.118,292.564 9.260 C 292.618 9.401,292.595 9.475,292.512 9.424 C 292.318 9.304,291.833 9.783,291.833 10.095 C 291.833 10.226,291.908 10.333,292.000 10.333 C 292.092 10.333,292.167 10.413,292.167 10.510 C 292.167 10.607,292.092 10.640,292.000 10.583 C 291.849 10.490,291.803 10.606,291.850 10.958 C 291.859 11.027,291.953 11.058,292.058 11.028 C 292.164 10.997,292.187 11.035,292.111 11.111 C 292.035 11.188,291.885 11.250,291.778 11.250 C 291.671 11.250,291.559 11.419,291.530 11.625 C 291.501 11.831,291.407 12.000,291.322 12.000 C 291.236 12.000,291.167 12.079,291.167 12.177 C 291.167 12.274,291.260 12.300,291.375 12.235 C 291.535 12.145,291.538 12.166,291.388 12.329 C 291.281 12.445,291.237 12.656,291.291 12.798 C 291.356 12.966,291.323 13.013,291.195 12.934 C 291.063 12.852,291.000 12.973,291.000 13.310 C 291.000 13.582,290.918 13.833,290.817 13.867 C 290.716 13.900,290.615 14.166,290.592 14.458 C 290.569 14.750,290.467 15.089,290.365 15.212 C 290.263 15.335,290.158 15.743,290.131 16.118 C 290.105 16.494,290.035 16.771,289.976 16.735 C 289.808 16.631,289.279 18.775,289.379 19.157 C 289.438 19.383,289.389 19.500,289.234 19.500 C 288.944 19.500,288.923 19.941,289.208 20.056 C 289.326 20.104,289.283 20.146,289.107 20.154 C 288.903 20.162,288.830 20.252,288.894 20.417 C 288.946 20.554,288.919 20.667,288.833 20.667 C 288.747 20.667,288.725 20.791,288.784 20.944 C 288.863 21.152,288.831 21.186,288.653 21.079 C 288.455 20.959,288.452 20.980,288.633 21.203 C 288.800 21.409,288.804 21.499,288.649 21.594 C 288.513 21.678,288.492 21.648,288.583 21.500 C 288.673 21.356,288.653 21.322,288.526 21.401 C 288.248 21.572,288.289 21.833,288.593 21.833 C 288.736 21.833,288.806 21.910,288.748 22.003 C 288.691 22.096,288.575 22.129,288.490 22.077 C 288.406 22.025,288.383 22.102,288.439 22.248 C 288.505 22.420,288.460 22.497,288.312 22.465 C 288.167 22.434,288.082 22.569,288.081 22.833 C 288.079 23.063,287.985 23.414,287.872 23.614 C 287.759 23.814,287.667 24.118,287.667 24.289 C 287.667 24.460,287.577 24.690,287.467 24.800 C 287.311 24.956,287.339 25.003,287.592 25.012 C 287.908 25.023,287.908 25.027,287.583 25.167 C 287.400 25.245,287.325 25.316,287.417 25.324 C 287.508 25.332,287.476 25.407,287.344 25.490 C 287.138 25.620,287.138 25.684,287.339 25.946 C 287.467 26.113,287.510 26.197,287.433 26.133 C 287.250 25.979,286.919 26.321,286.796 26.792 C 286.730 27.044,286.759 27.129,286.884 27.052 C 286.986 26.989,286.911 27.206,286.717 27.535 C 286.523 27.864,286.380 28.361,286.399 28.640 C 286.419 28.918,286.374 29.109,286.300 29.063 C 286.174 28.985,286.097 29.246,286.153 29.559 C 286.167 29.638,286.101 29.795,286.007 29.908 C 285.913 30.021,285.886 30.163,285.946 30.224 C 286.006 30.284,285.960 30.333,285.843 30.333 C 285.725 30.333,285.673 30.442,285.725 30.578 C 285.777 30.713,285.744 30.869,285.653 30.925 C 285.561 30.982,285.530 31.164,285.582 31.330 C 285.636 31.500,285.559 31.751,285.404 31.905 C 285.252 32.057,285.169 32.324,285.216 32.506 C 285.264 32.686,285.234 32.875,285.151 32.926 C 285.068 32.978,285.000 33.170,285.000 33.353 C 285.000 33.536,284.938 33.648,284.861 33.601 C 284.785 33.553,284.722 33.621,284.722 33.750 C 284.722 33.879,284.780 33.950,284.850 33.907 C 284.920 33.863,285.025 33.906,285.084 34.001 C 285.143 34.097,285.130 34.164,285.054 34.151 C 284.637 34.079,284.481 34.200,284.528 34.560 C 284.556 34.777,284.497 35.058,284.397 35.185 C 284.207 35.427,283.818 36.707,283.783 37.208 C 283.771 37.369,283.708 37.500,283.641 37.500 C 283.575 37.500,283.470 37.838,283.408 38.252 C 283.346 38.666,283.225 39.047,283.141 39.099 C 283.056 39.152,283.032 39.338,283.088 39.514 C 283.149 39.706,283.110 39.833,282.992 39.833 C 282.868 39.833,282.823 40.019,282.869 40.333 C 282.924 40.708,282.876 40.834,282.679 40.836 C 282.522 40.837,282.486 40.888,282.589 40.961 C 282.832 41.134,282.779 41.593,282.522 41.538 C 282.404 41.512,282.348 41.555,282.396 41.633 C 282.444 41.710,282.388 41.956,282.273 42.179 C 282.157 42.401,282.049 42.640,282.032 42.708 C 282.014 42.777,281.994 42.852,281.986 42.875 C 281.881 43.191,281.912 43.796,282.041 43.958 C 282.161 44.108,282.130 44.167,281.934 44.167 C 281.731 44.167,281.680 44.277,281.738 44.597 C 281.799 44.932,281.769 44.988,281.602 44.849 C 281.377 44.662,281.376 44.665,281.277 45.508 C 281.250 45.742,281.160 46.042,281.077 46.175 C 280.994 46.308,280.909 46.492,280.888 46.583 C 280.867 46.675,280.797 46.930,280.732 47.151 C 280.639 47.468,280.663 47.524,280.849 47.416 C 280.978 47.341,280.924 47.460,280.730 47.681 C 280.229 48.250,280.171 48.535,280.480 48.914 C 280.709 49.194,280.710 49.214,280.490 49.044 C 280.194 48.817,279.704 49.823,279.932 50.191 C 280.011 50.320,279.978 50.339,279.833 50.250 C 279.670 50.149,279.638 50.206,279.708 50.474 C 279.760 50.671,279.729 50.878,279.640 50.933 C 279.550 50.989,279.514 51.129,279.559 51.247 C 279.604 51.364,279.553 51.547,279.445 51.655 C 279.338 51.762,279.244 51.902,279.237 51.967 C 279.171 52.561,278.935 53.333,278.818 53.333 C 278.738 53.333,278.699 53.558,278.731 53.833 C 278.763 54.108,278.716 54.333,278.625 54.333 C 278.535 54.333,278.497 54.523,278.542 54.754 C 278.594 55.031,278.530 55.229,278.353 55.332 C 278.205 55.419,278.149 55.492,278.229 55.495 C 278.309 55.498,278.284 55.609,278.174 55.741 C 278.007 55.942,277.913 56.462,277.839 57.583 C 277.833 57.675,277.748 57.637,277.651 57.500 C 277.514 57.307,277.496 57.355,277.573 57.708 C 277.631 57.974,277.602 58.167,277.503 58.167 C 277.410 58.167,277.333 58.312,277.333 58.490 C 277.333 58.668,277.254 58.863,277.157 58.922 C 276.295 59.455,277.008 59.509,284.969 59.508 C 293.820 59.507,293.111 59.590,293.255 58.538 C 293.454 57.086,293.487 56.944,293.658 56.839 C 293.751 56.781,293.855 56.436,293.888 56.072 C 293.920 55.708,294.034 55.248,294.140 55.049 C 294.400 54.563,294.385 54.493,294.042 54.611 C 293.794 54.696,293.798 54.674,294.069 54.463 C 294.245 54.326,294.416 54.038,294.449 53.822 C 294.482 53.607,294.600 53.366,294.713 53.286 C 294.873 53.172,294.873 53.123,294.710 53.057 C 294.553 52.994,294.564 52.912,294.753 52.723 C 294.891 52.586,294.962 52.406,294.911 52.325 C 294.861 52.243,294.939 51.946,295.085 51.663 C 295.237 51.370,295.304 51.002,295.241 50.804 C 295.164 50.563,295.190 50.495,295.327 50.579 C 295.444 50.652,295.505 50.610,295.480 50.475 C 295.421 50.164,295.670 49.157,295.895 48.797 C 296.111 48.451,314.667 48.322,314.667 48.667 C 314.667 48.758,314.660 48.881,314.652 48.940 C 314.645 48.998,314.715 49.093,314.808 49.151 C 314.902 49.209,315.011 49.480,315.051 49.753 C 315.095 50.050,315.211 50.229,315.340 50.199 C 315.516 50.157,315.517 50.196,315.343 50.405 C 315.065 50.740,315.246 51.280,315.551 51.027 C 315.793 50.826,315.850 51.425,315.622 51.778 C 315.553 51.885,315.615 52.092,315.760 52.237 C 315.905 52.381,315.943 52.500,315.845 52.500 C 315.747 52.500,315.667 52.579,315.667 52.677 C 315.667 52.774,315.741 52.807,315.831 52.751 C 315.926 52.693,315.954 52.760,315.896 52.910 C 315.841 53.054,315.883 53.276,315.990 53.404 C 316.096 53.533,316.216 54.023,316.256 54.495 C 316.295 54.966,316.442 55.466,316.582 55.606 C 316.722 55.746,316.794 55.929,316.742 56.013 C 316.690 56.098,316.722 56.167,316.813 56.167 C 316.910 56.167,316.939 56.412,316.883 56.758 C 316.810 57.209,316.842 57.337,317.019 57.299 C 317.178 57.265,317.239 57.393,317.216 57.708 C 317.198 57.960,317.252 58.167,317.337 58.167 C 317.422 58.167,317.444 58.403,317.386 58.693 C 317.317 59.039,317.341 59.182,317.455 59.111 C 317.551 59.052,317.619 59.115,317.606 59.251 C 317.586 59.466,318.677 59.499,326.083 59.506 C 335.302 59.514,334.975 59.548,334.480 58.634 C 334.366 58.423,334.253 58.070,334.228 57.850 C 334.204 57.631,334.105 57.372,334.009 57.275 C 333.912 57.179,333.833 56.890,333.833 56.633 C 333.833 56.377,333.765 56.167,333.682 56.167 C 333.599 56.167,333.570 56.017,333.618 55.833 C 333.667 55.647,333.623 55.500,333.519 55.500 C 333.417 55.500,333.333 55.318,333.333 55.095 C 333.333 54.873,333.221 54.578,333.083 54.440 C 332.797 54.155,332.748 53.928,333.007 54.087 C 333.249 54.237,333.005 53.314,332.729 53.038 C 332.611 52.920,332.557 52.713,332.608 52.579 C 332.660 52.444,332.622 52.333,332.523 52.333 C 332.424 52.333,332.386 52.223,332.438 52.088 C 332.541 51.819,332.163 50.833,331.956 50.833 C 331.885 50.833,331.861 50.647,331.902 50.419 C 331.943 50.192,331.907 49.962,331.822 49.910 C 331.736 49.857,331.667 49.634,331.667 49.415 C 331.667 49.196,331.535 48.940,331.375 48.847 C 331.213 48.752,331.176 48.675,331.292 48.672 C 331.615 48.664,331.537 48.335,331.208 48.320 C 331.034 48.312,331.001 48.273,331.125 48.223 C 331.417 48.105,331.385 47.722,331.073 47.602 C 330.929 47.547,330.859 47.427,330.916 47.335 C 330.973 47.242,330.921 47.166,330.802 47.164 C 330.642 47.162,330.651 47.116,330.833 46.994 C 331.051 46.848,331.045 46.797,330.783 46.597 C 330.560 46.426,330.538 46.347,330.699 46.288 C 330.873 46.224,330.875 46.164,330.708 45.987 C 330.594 45.866,330.500 45.632,330.500 45.467 C 330.500 45.302,330.427 45.167,330.339 45.167 C 330.250 45.167,330.222 45.049,330.277 44.905 C 330.333 44.762,330.299 44.480,330.204 44.280 C 329.898 43.639,329.780 43.256,329.818 43.025 C 329.839 42.901,329.781 42.846,329.690 42.902 C 329.470 43.038,329.295 42.460,329.441 42.079 C 329.513 41.891,329.492 41.818,329.385 41.885 C 329.282 41.948,329.231 41.832,329.257 41.593 C 329.281 41.375,329.196 40.993,329.067 40.746 C 328.939 40.498,328.833 40.154,328.833 39.981 C 328.833 39.808,328.769 39.667,328.690 39.667 C 328.611 39.667,328.580 39.488,328.622 39.270 C 328.664 39.051,328.616 38.822,328.516 38.760 C 328.415 38.698,328.333 38.528,328.333 38.384 C 328.333 38.239,328.202 38.020,328.042 37.899 C 327.864 37.763,327.831 37.675,327.958 37.672 C 328.206 37.666,328.238 37.230,328.002 37.085 C 327.905 37.025,327.877 37.107,327.934 37.283 C 328.005 37.502,327.989 37.524,327.874 37.364 C 327.788 37.244,327.750 36.971,327.791 36.759 C 327.831 36.546,327.786 36.324,327.690 36.264 C 327.593 36.205,327.560 36.038,327.615 35.895 C 327.670 35.751,327.620 35.574,327.503 35.502 C 327.386 35.430,327.265 35.082,327.233 34.728 C 327.201 34.375,327.103 34.062,327.014 34.032 C 326.925 34.003,326.892 33.873,326.942 33.745 C 326.991 33.617,326.874 33.291,326.682 33.022 C 326.287 32.466,326.236 32.257,326.542 32.435 C 326.656 32.502,326.600 32.382,326.417 32.167 C 326.233 31.952,326.177 31.831,326.292 31.898 C 326.406 31.965,326.500 31.940,326.500 31.843 C 326.500 31.746,326.392 31.667,326.260 31.667 C 326.109 31.667,326.043 31.542,326.083 31.333 C 326.126 31.109,326.055 30.996,325.865 30.987 C 325.692 30.979,325.663 30.941,325.792 30.890 C 325.906 30.843,325.999 30.681,325.997 30.528 C 325.995 30.288,325.973 30.284,325.833 30.500 C 325.703 30.701,325.671 30.675,325.669 30.365 C 325.668 30.112,325.738 30.016,325.875 30.086 C 325.990 30.144,325.964 30.092,325.817 29.971 C 325.671 29.849,325.571 29.619,325.594 29.458 C 325.618 29.298,325.540 29.167,325.421 29.167 C 325.155 29.167,324.983 28.583,325.189 28.377 C 325.279 28.288,325.240 27.944,325.093 27.528 C 324.823 26.763,324.833 26.809,324.833 26.333 C 324.833 26.150,324.754 26.000,324.657 26.000 C 324.560 26.000,324.534 26.087,324.599 26.192 C 324.674 26.313,324.645 26.340,324.523 26.264 C 324.416 26.198,324.371 26.074,324.424 25.989 C 324.476 25.904,324.402 25.667,324.260 25.463 C 324.117 25.259,324.001 24.978,324.003 24.838 C 324.005 24.613,324.024 24.612,324.167 24.833 C 324.307 25.051,324.329 25.048,324.331 24.812 C 324.332 24.663,324.217 24.445,324.076 24.327 C 323.934 24.209,323.857 24.013,323.904 23.890 C 323.951 23.767,323.915 23.667,323.825 23.667 C 323.730 23.667,323.707 23.473,323.770 23.208 C 323.831 22.956,323.820 22.806,323.747 22.874 C 323.673 22.942,323.503 22.840,323.368 22.647 C 323.160 22.351,323.158 22.275,323.353 22.151 C 323.524 22.043,323.529 22.004,323.372 22.003 C 323.229 22.001,323.195 21.863,323.265 21.581 C 323.354 21.227,323.323 21.178,323.060 21.264 C 322.820 21.342,322.803 21.327,322.985 21.198 C 323.186 21.055,323.187 20.951,322.988 20.474 C 322.860 20.167,322.776 19.823,322.802 19.708 C 322.827 19.594,322.772 19.500,322.679 19.500 C 322.586 19.500,322.560 19.369,322.620 19.208 C 322.713 18.959,322.690 18.948,322.464 19.132 C 322.229 19.323,322.205 19.278,322.255 18.742 C 322.318 18.064,322.202 17.625,321.994 17.754 C 321.918 17.800,321.809 17.763,321.752 17.669 C 321.694 17.576,321.764 17.500,321.907 17.500 C 322.050 17.500,322.167 17.425,322.167 17.333 C 322.167 17.242,322.092 17.167,322.000 17.167 C 321.908 17.167,321.833 17.021,321.833 16.843 C 321.833 16.665,321.757 16.473,321.664 16.415 C 321.571 16.357,321.542 16.233,321.600 16.139 C 321.658 16.045,321.629 15.807,321.535 15.609 C 321.441 15.412,321.320 15.114,321.266 14.948 C 321.213 14.782,321.093 14.692,321.001 14.749 C 320.909 14.806,320.833 14.774,320.833 14.677 C 320.833 14.579,320.904 14.500,320.990 14.500 C 321.200 14.500,321.059 13.806,320.818 13.657 C 320.684 13.574,320.695 13.514,320.856 13.450 C 321.017 13.386,321.023 13.356,320.875 13.346 C 320.760 13.339,320.667 13.152,320.667 12.930 C 320.667 12.349,320.500 12.000,320.222 12.000 C 320.089 12.000,320.027 11.925,320.083 11.833 C 320.140 11.742,320.098 11.667,319.989 11.667 C 319.846 11.667,319.842 11.608,319.974 11.448 C 320.177 11.203,320.042 10.000,319.812 10.000 C 319.732 10.000,319.667 9.817,319.667 9.593 C 319.667 9.369,319.603 9.147,319.526 9.099 C 319.448 9.051,319.378 8.779,319.370 8.494 C 319.362 8.210,319.284 7.888,319.197 7.780 C 319.110 7.672,318.986 7.340,318.923 7.042 C 318.859 6.744,318.719 6.499,318.612 6.497 C 318.499 6.496,318.523 6.426,318.667 6.333 C 318.804 6.244,318.831 6.171,318.727 6.169 C 318.548 6.167,318.329 5.429,318.318 4.788 C 318.315 4.626,318.243 4.536,318.157 4.590 C 318.070 4.643,318.000 4.499,318.000 4.269 C 318.000 3.928,317.932 3.865,317.625 3.920 C 317.281 3.982,317.274 3.969,317.542 3.767 C 317.852 3.532,317.946 2.833,317.667 2.833 C 317.575 2.833,317.500 2.716,317.500 2.573 C 317.500 2.410,317.423 2.360,317.292 2.439 C 317.131 2.536,317.132 2.504,317.296 2.301 C 317.664 1.847,317.315 1.833,305.694 1.833 L 294.415 1.833 294.225 2.292 M342.208 1.942 C 341.952 2.048,341.897 59.250,342.154 59.409 C 342.238 59.461,346.120 59.506,350.779 59.508 L 359.250 59.512 359.293 50.311 L 359.336 41.110 359.926 40.585 C 360.251 40.297,360.528 39.901,360.543 39.705 C 360.562 39.448,360.625 39.396,360.771 39.517 C 360.914 39.636,361.002 39.590,361.076 39.358 C 361.133 39.178,361.288 38.989,361.420 38.938 C 361.556 38.886,361.618 38.734,361.563 38.590 C 361.507 38.444,361.554 38.333,361.671 38.333 C 361.912 38.333,362.667 37.562,362.667 37.315 C 362.667 37.223,362.723 37.176,362.792 37.211 C 362.860 37.246,363.254 36.936,363.667 36.523 C 364.079 36.109,364.328 35.824,364.220 35.888 C 364.112 35.953,363.986 35.945,363.940 35.871 C 363.895 35.798,364.077 35.640,364.345 35.521 C 364.614 35.403,364.833 35.199,364.833 35.069 C 364.833 34.940,364.948 34.833,365.089 34.833 C 365.229 34.833,365.382 34.733,365.429 34.611 C 365.476 34.489,365.739 34.389,366.014 34.389 C 366.288 34.389,366.426 34.443,366.319 34.509 C 366.212 34.575,366.175 34.713,366.238 34.815 C 366.301 34.917,366.262 35.000,366.151 35.000 C 366.040 35.000,366.099 35.131,366.282 35.292 C 366.465 35.452,366.582 35.677,366.543 35.792 C 366.504 35.906,366.548 36.000,366.640 36.000 C 366.732 36.000,366.856 36.225,366.917 36.500 C 366.977 36.775,367.088 37.000,367.164 37.000 C 367.239 37.000,367.384 37.206,367.486 37.458 C 367.888 38.450,368.550 39.489,368.716 39.386 C 368.823 39.320,368.849 39.385,368.784 39.556 C 368.713 39.740,368.763 39.833,368.932 39.833 C 369.072 39.833,369.140 39.908,369.083 40.000 C 369.027 40.092,369.106 40.167,369.261 40.167 C 369.491 40.167,369.504 40.211,369.333 40.417 C 369.116 40.678,369.246 40.952,369.833 41.471 C 369.971 41.592,369.990 41.644,369.877 41.587 C 369.744 41.520,369.704 41.570,369.765 41.728 C 369.817 41.864,369.971 42.017,370.107 42.069 C 370.243 42.122,370.311 42.235,370.258 42.321 C 370.205 42.407,370.239 42.525,370.333 42.583 C 370.428 42.642,370.454 42.772,370.392 42.873 C 370.321 42.988,370.374 43.020,370.535 42.958 C 370.724 42.886,370.792 42.970,370.792 43.282 C 370.792 43.530,370.971 43.858,371.229 44.080 C 371.671 44.459,371.849 44.963,371.458 44.728 C 371.324 44.647,371.334 44.706,371.485 44.893 C 371.670 45.121,371.750 45.136,371.858 44.966 C 371.945 44.828,371.996 44.952,371.997 45.309 C 371.999 45.651,372.194 46.156,372.500 46.609 C 372.775 47.017,373.000 47.467,373.000 47.610 C 373.000 47.776,373.093 47.833,373.259 47.770 C 373.413 47.711,373.474 47.740,373.411 47.843 C 373.352 47.937,373.395 48.124,373.506 48.257 C 373.617 48.391,373.658 48.500,373.598 48.500 C 373.538 48.500,373.570 48.652,373.669 48.838 C 373.769 49.024,373.920 49.133,374.006 49.079 C 374.095 49.025,374.115 49.107,374.053 49.269 C 373.979 49.461,374.006 49.516,374.136 49.435 C 374.257 49.361,374.297 49.402,374.242 49.544 C 374.194 49.669,374.302 49.905,374.483 50.068 C 374.663 50.231,374.770 50.470,374.721 50.599 C 374.671 50.728,374.714 50.833,374.816 50.833 C 374.917 50.833,375.000 50.954,375.000 51.101 C 375.000 51.257,375.094 51.333,375.224 51.283 C 375.382 51.222,375.427 51.309,375.375 51.579 C 375.335 51.789,375.396 52.019,375.510 52.090 C 375.653 52.178,375.676 52.150,375.583 52.000 C 375.496 51.859,375.514 51.822,375.634 51.896 C 375.735 51.959,375.772 52.133,375.714 52.283 C 375.649 52.454,375.677 52.513,375.789 52.444 C 375.906 52.372,375.936 52.460,375.875 52.692 C 375.810 52.939,375.842 53.015,375.974 52.933 C 376.094 52.858,376.167 52.934,376.167 53.136 C 376.167 53.314,376.279 53.553,376.417 53.667 C 376.554 53.781,376.667 53.982,376.667 54.114 C 376.667 54.252,376.748 54.303,376.859 54.234 C 376.984 54.157,377.006 54.189,376.921 54.326 C 376.849 54.442,376.864 54.585,376.954 54.644 C 377.043 54.702,377.194 54.975,377.288 55.250 C 377.381 55.525,377.548 55.729,377.658 55.704 C 377.768 55.679,377.816 55.726,377.766 55.808 C 377.627 56.032,378.391 56.785,378.673 56.701 C 378.841 56.651,378.827 56.699,378.628 56.856 C 378.335 57.086,378.380 57.833,378.686 57.833 C 378.767 57.833,378.833 57.946,378.833 58.083 C 378.833 58.221,378.983 58.483,379.167 58.667 C 379.350 58.850,379.494 59.039,379.488 59.087 C 379.481 59.136,379.500 59.249,379.530 59.339 C 379.639 59.668,397.304 59.632,397.390 59.302 C 397.430 59.148,397.354 58.980,397.221 58.929 C 397.088 58.878,397.015 58.778,397.058 58.707 C 397.102 58.637,397.026 58.393,396.891 58.165 C 396.755 57.937,396.683 57.879,396.731 58.036 C 396.779 58.194,396.747 58.367,396.659 58.421 C 396.572 58.475,396.500 58.371,396.500 58.189 C 396.500 58.007,396.369 57.823,396.208 57.782 C 395.941 57.712,395.942 57.704,396.221 57.686 C 396.419 57.673,396.502 57.565,396.461 57.375 C 396.426 57.215,396.289 57.108,396.157 57.139 C 396.025 57.169,395.967 57.144,396.028 57.083 C 396.222 56.889,395.819 56.018,395.486 55.912 C 395.310 55.856,395.167 55.736,395.167 55.646 C 395.167 55.555,395.249 55.531,395.350 55.594 C 395.477 55.672,395.474 55.597,395.342 55.349 C 395.236 55.152,395.077 55.035,394.989 55.090 C 394.900 55.145,394.878 55.271,394.940 55.371 C 395.008 55.481,394.974 55.503,394.851 55.428 C 394.731 55.354,394.708 55.226,394.794 55.110 C 395.007 54.822,394.934 54.410,394.679 54.465 C 394.532 54.498,394.487 54.403,394.544 54.182 C 394.592 53.999,394.583 53.827,394.524 53.800 C 394.465 53.772,394.232 53.396,394.006 52.964 C 393.737 52.447,393.552 52.247,393.467 52.380 C 393.335 52.589,393.261 52.335,393.321 51.875 C 393.336 51.760,393.265 51.667,393.164 51.667 C 393.063 51.667,393.023 51.598,393.074 51.515 C 393.126 51.431,393.037 51.132,392.876 50.849 C 392.577 50.324,392.333 50.180,392.333 50.528 C 392.333 50.635,392.285 50.674,392.226 50.615 C 392.167 50.556,392.214 50.394,392.330 50.254 C 392.474 50.080,392.482 50.000,392.354 50.000 C 392.251 50.000,392.167 49.879,392.167 49.732 C 392.167 49.581,392.072 49.501,391.951 49.547 C 391.821 49.597,391.725 49.494,391.709 49.288 C 391.695 49.100,391.614 48.902,391.529 48.848 C 391.445 48.794,391.322 48.506,391.257 48.207 C 391.193 47.908,391.079 47.701,391.004 47.748 C 390.929 47.794,390.824 47.715,390.769 47.574 C 390.709 47.416,390.739 47.359,390.848 47.425 C 390.945 47.486,390.925 47.376,390.804 47.182 C 390.683 46.988,390.502 46.861,390.402 46.899 C 390.302 46.938,390.114 46.894,389.985 46.802 C 389.798 46.669,389.808 46.654,390.036 46.727 C 390.486 46.871,390.570 46.513,390.184 46.102 C 389.991 45.897,389.833 45.640,389.833 45.531 C 389.833 45.422,389.685 45.185,389.504 45.004 C 389.322 44.822,389.218 44.560,389.272 44.420 C 389.332 44.263,389.274 44.167,389.120 44.167 C 388.967 44.167,388.828 43.941,388.761 43.583 C 388.701 43.262,388.580 43.000,388.492 43.000 C 388.405 43.000,388.333 42.896,388.333 42.768 C 388.333 42.641,388.178 42.360,387.987 42.143 C 387.797 41.927,387.690 41.862,387.750 42.000 C 387.822 42.167,387.779 42.154,387.621 41.961 C 387.490 41.802,387.323 41.727,387.248 41.794 C 387.174 41.862,387.163 41.829,387.224 41.723 C 387.285 41.616,387.245 41.498,387.134 41.461 C 386.978 41.409,386.978 41.367,387.133 41.271 C 387.243 41.203,387.333 41.226,387.333 41.323 C 387.333 41.421,387.420 41.500,387.526 41.500 C 387.641 41.500,387.608 41.378,387.442 41.195 C 387.291 41.028,387.167 40.763,387.167 40.607 C 387.167 40.451,387.054 40.280,386.917 40.227 C 386.779 40.174,386.667 40.015,386.667 39.873 C 386.667 39.731,386.482 39.373,386.257 39.078 C 386.032 38.783,385.894 38.495,385.951 38.438 C 386.007 38.382,385.880 38.185,385.668 38.001 C 385.456 37.817,385.350 37.664,385.433 37.661 C 385.516 37.658,385.445 37.551,385.275 37.422 C 385.105 37.294,385.016 37.109,385.076 37.012 C 385.136 36.915,384.992 36.643,384.756 36.407 C 384.520 36.171,384.370 35.909,384.423 35.823 C 384.476 35.738,384.326 35.489,384.090 35.271 C 383.820 35.020,383.700 34.774,383.765 34.604 C 383.881 34.301,383.658 34.242,383.395 34.505 C 383.277 34.623,383.246 34.519,383.297 34.172 C 383.356 33.767,383.310 33.664,383.061 33.654 C 382.885 33.646,382.841 33.604,382.958 33.556 C 383.073 33.510,383.167 33.391,383.167 33.292 C 383.167 33.192,383.118 33.160,383.059 33.219 C 383.000 33.278,382.771 32.934,382.551 32.455 C 382.330 31.976,381.985 31.446,381.783 31.277 C 381.582 31.109,381.510 31.020,381.625 31.079 C 381.914 31.228,381.886 30.961,381.571 30.574 C 381.427 30.396,381.356 30.344,381.414 30.458 C 381.573 30.771,381.444 30.710,381.100 30.308 C 380.833 29.996,380.829 29.963,381.071 30.056 C 381.511 30.225,380.879 29.241,380.410 29.027 C 380.129 28.899,380.061 28.757,380.123 28.430 C 380.171 28.181,380.129 28.000,380.025 28.000 C 379.924 28.000,379.891 27.876,379.951 27.721 C 380.034 27.505,379.991 27.468,379.760 27.556 C 379.535 27.643,379.487 27.607,379.564 27.406 C 379.688 27.084,379.377 26.453,379.160 26.587 C 379.074 26.640,379.044 26.580,379.093 26.452 C 379.142 26.324,379.070 26.128,378.934 26.015 C 378.798 25.901,378.731 25.683,378.786 25.529 C 378.841 25.376,378.829 25.302,378.759 25.365 C 378.574 25.531,378.193 25.125,378.292 24.867 C 378.338 24.748,378.215 24.479,378.020 24.271 C 377.824 24.062,377.718 23.837,377.785 23.770 C 377.852 23.704,377.785 23.696,377.637 23.753 C 377.488 23.809,377.310 23.764,377.241 23.652 C 377.159 23.520,377.185 23.491,377.314 23.571 C 377.455 23.659,377.501 23.525,377.472 23.103 C 377.451 22.778,377.485 22.459,377.550 22.395 C 377.614 22.330,377.667 22.399,377.667 22.548 C 377.667 22.765,377.747 22.743,378.083 22.431 C 378.313 22.219,378.500 21.960,378.500 21.856 C 378.500 21.752,378.594 21.685,378.708 21.708 C 378.823 21.731,378.898 21.656,378.875 21.542 C 378.852 21.427,378.894 21.333,378.968 21.333 C 379.042 21.333,379.249 21.217,379.426 21.075 C 379.739 20.825,379.736 20.820,379.351 20.927 C 379.006 21.023,378.982 21.005,379.179 20.794 C 379.304 20.660,379.532 20.583,379.685 20.623 C 379.837 20.663,380.020 20.603,380.090 20.489 C 380.177 20.348,380.150 20.324,380.004 20.414 C 379.862 20.502,379.816 20.469,379.866 20.315 C 379.908 20.188,380.106 20.059,380.305 20.030 C 380.504 20.001,380.667 19.867,380.667 19.733 C 380.667 19.599,380.783 19.445,380.926 19.390 C 381.069 19.335,381.146 19.187,381.098 19.062 C 381.040 18.911,381.136 18.832,381.380 18.831 C 381.638 18.829,381.685 18.787,381.534 18.691 C 381.361 18.581,381.369 18.511,381.574 18.341 C 381.714 18.225,381.781 18.051,381.722 17.955 C 381.659 17.852,381.696 17.832,381.816 17.906 C 381.969 18.001,381.970 18.085,381.821 18.265 C 381.501 18.651,381.737 18.533,382.312 18.019 C 382.609 17.754,382.863 17.387,382.876 17.204 C 382.891 17.005,382.989 16.903,383.117 16.953 C 383.236 16.998,383.333 16.953,383.333 16.851 C 383.333 16.750,383.446 16.667,383.583 16.667 C 383.721 16.667,383.833 16.587,383.833 16.490 C 383.833 16.393,383.764 16.357,383.678 16.410 C 383.593 16.462,383.482 16.439,383.432 16.358 C 383.382 16.277,383.508 16.220,383.712 16.230 C 383.962 16.244,384.065 16.168,384.028 16.000 C 383.997 15.862,384.028 15.806,384.096 15.874 C 384.276 16.054,384.667 15.676,384.667 15.323 C 384.667 15.156,384.753 14.966,384.859 14.901 C 384.978 14.827,385.006 14.855,384.933 14.974 C 384.867 15.080,384.893 15.167,384.990 15.167 C 385.087 15.167,385.167 15.054,385.167 14.917 C 385.167 14.779,385.246 14.667,385.343 14.667 C 385.440 14.667,385.473 14.592,385.417 14.500 C 385.360 14.408,385.419 14.333,385.547 14.333 C 385.806 14.333,386.833 13.273,386.833 13.004 C 386.833 12.910,386.917 12.833,387.019 12.833 C 387.290 12.833,388.513 11.490,388.404 11.313 C 388.353 11.231,388.485 11.094,388.698 11.009 C 388.910 10.924,388.985 10.850,388.865 10.844 C 388.745 10.838,388.694 10.757,388.752 10.664 C 388.809 10.571,388.930 10.540,389.019 10.595 C 389.155 10.679,390.970 8.976,390.993 8.743 C 390.997 8.701,391.000 8.594,391.000 8.505 C 391.000 8.416,391.131 8.393,391.292 8.453 C 391.552 8.551,391.558 8.531,391.342 8.266 C 391.132 8.008,391.132 7.975,391.342 8.005 C 391.770 8.066,392.000 8.004,392.000 7.827 C 392.000 7.731,392.304 7.356,392.675 6.992 C 393.047 6.627,393.308 6.261,393.256 6.176 C 393.204 6.092,393.249 5.969,393.356 5.902 C 393.478 5.827,393.507 5.854,393.433 5.974 C 393.243 6.281,393.470 6.197,393.846 5.820 C 394.037 5.630,394.151 5.368,394.101 5.237 C 394.041 5.080,394.125 5.000,394.348 5.000 C 394.534 5.000,394.640 4.925,394.583 4.833 C 394.527 4.742,394.586 4.667,394.714 4.667 C 394.963 4.667,395.459 4.195,395.502 3.917 C 395.516 3.825,395.571 3.712,395.624 3.667 C 395.677 3.621,395.665 3.696,395.597 3.833 C 395.530 3.971,395.636 3.896,395.833 3.667 C 396.031 3.438,396.411 2.999,396.679 2.692 C 396.947 2.386,397.167 2.067,397.167 1.984 C 397.167 1.896,393.651 1.833,388.750 1.833 C 382.129 1.833,380.333 1.878,380.331 2.042 C 380.329 2.198,380.293 2.194,380.187 2.028 C 380.072 1.846,380.029 1.850,379.953 2.049 C 379.901 2.183,379.947 2.386,380.055 2.500 C 380.210 2.665,380.170 2.666,379.855 2.504 C 379.619 2.382,379.504 2.371,379.569 2.476 C 379.628 2.573,379.492 2.773,379.265 2.922 C 379.039 3.070,378.892 3.291,378.938 3.413 C 378.985 3.534,378.924 3.622,378.803 3.608 C 378.682 3.595,378.548 3.658,378.505 3.750 C 378.462 3.842,378.226 4.112,377.982 4.351 C 377.738 4.590,377.487 4.946,377.424 5.143 C 377.362 5.339,377.203 5.500,377.072 5.500 C 376.941 5.500,376.833 5.575,376.833 5.667 C 376.833 5.758,376.908 5.833,377.000 5.833 C 377.092 5.833,377.167 5.911,377.167 6.006 C 377.167 6.124,377.066 6.125,376.851 6.009 C 376.476 5.809,376.071 6.177,376.225 6.579 C 376.278 6.717,376.268 6.821,376.202 6.812 C 375.858 6.760,375.667 6.861,375.667 7.093 C 375.667 7.236,375.600 7.312,375.519 7.262 C 375.372 7.171,375.079 7.433,374.973 7.750 C 374.942 7.842,374.860 7.898,374.792 7.875 C 374.723 7.852,374.667 7.902,374.667 7.986 C 374.667 8.167,374.120 8.842,373.389 9.563 C 373.099 9.849,372.836 10.233,372.804 10.417 C 372.772 10.600,372.698 10.713,372.640 10.667 C 372.434 10.504,371.833 11.225,371.820 11.651 C 371.813 11.889,371.769 11.990,371.723 11.875 C 371.677 11.760,371.562 11.667,371.468 11.667 C 371.374 11.667,371.341 11.779,371.394 11.917 C 371.447 12.055,371.398 12.167,371.286 12.167 C 370.755 12.167,369.518 13.963,369.881 14.207 C 369.992 14.282,369.858 14.291,369.583 14.227 C 369.113 14.118,369.098 14.130,369.333 14.420 C 369.558 14.698,369.556 14.719,369.309 14.627 C 369.017 14.517,368.333 15.114,368.333 15.479 C 368.333 15.593,368.268 15.646,368.188 15.596 C 368.108 15.547,367.901 15.700,367.729 15.938 C 367.557 16.175,367.211 16.580,366.959 16.838 C 366.654 17.150,366.571 17.332,366.709 17.383 C 366.830 17.428,366.743 17.532,366.500 17.632 C 365.886 17.884,365.484 18.417,365.725 18.659 C 365.870 18.806,365.853 18.829,365.654 18.753 C 365.410 18.660,364.500 19.377,364.500 19.663 C 364.500 19.727,364.200 20.086,363.833 20.460 C 363.467 20.834,363.167 21.251,363.167 21.385 C 363.167 21.520,363.037 21.619,362.879 21.606 C 362.721 21.594,362.590 21.658,362.587 21.750 C 362.585 21.842,362.412 22.088,362.202 22.298 C 361.993 22.507,361.874 22.764,361.938 22.868 C 362.013 22.990,361.962 23.021,361.794 22.957 C 361.621 22.890,361.503 22.971,361.444 23.195 C 361.390 23.401,361.279 23.486,361.160 23.413 C 361.023 23.328,360.998 23.397,361.077 23.646 C 361.142 23.851,361.117 24.000,361.016 24.000 C 360.921 24.000,360.885 24.131,360.934 24.292 C 361.020 24.568,361.015 24.568,360.839 24.294 C 360.626 23.963,359.538 24.990,359.746 25.326 C 359.808 25.426,359.744 25.455,359.592 25.397 C 359.362 25.309,359.333 24.015,359.333 13.571 L 359.333 1.845 350.875 1.851 C 346.223 1.854,342.323 1.895,342.208 1.942 M228.458 45.195 C 228.434 53.109,228.415 46.683,228.415 30.917 C 228.415 15.150,228.434 8.675,228.458 16.528 C 228.482 24.382,228.482 37.282,228.458 45.195 M359.125 20.125 C 359.100 23.402,359.079 20.721,359.079 14.167 C 359.079 7.612,359.100 4.931,359.125 8.208 C 359.150 11.485,359.150 16.848,359.125 20.125 M254.667 10.486 C 254.385 10.566,254.759 10.642,255.824 10.720 C 256.785 10.790,257.449 10.915,257.530 11.042 C 257.602 11.156,257.663 11.179,257.664 11.092 C 257.666 11.005,257.757 11.023,257.867 11.133 C 257.977 11.243,258.244 11.333,258.460 11.333 C 258.718 11.333,258.811 11.400,258.732 11.528 C 258.656 11.651,258.699 11.693,258.848 11.640 C 259.117 11.545,259.696 12.075,259.528 12.263 C 259.467 12.331,259.503 12.337,259.610 12.276 C 259.716 12.216,259.978 12.236,260.193 12.322 C 260.542 12.462,260.548 12.480,260.250 12.492 C 259.973 12.503,259.959 12.532,260.167 12.667 C 260.304 12.756,260.342 12.832,260.250 12.836 C 260.158 12.840,260.233 12.957,260.417 13.096 C 260.600 13.234,260.731 13.382,260.708 13.424 C 260.685 13.466,260.673 13.706,260.680 13.958 C 260.687 14.210,260.731 14.323,260.777 14.208 C 260.823 14.094,260.932 14.000,261.020 14.000 C 261.117 14.000,261.114 14.120,261.012 14.311 C 260.920 14.483,260.885 14.663,260.934 14.712 C 260.983 14.761,261.015 16.579,261.006 18.752 C 260.993 21.740,261.041 22.767,261.203 22.967 C 261.366 23.169,261.368 23.201,261.208 23.105 C 261.063 23.018,261.000 23.112,261.000 23.417 C 261.000 23.665,260.928 23.809,260.833 23.750 C 260.600 23.606,260.625 23.891,260.867 24.133 C 261.022 24.289,261.017 24.380,260.842 24.542 C 260.663 24.708,260.641 24.708,260.735 24.542 C 260.800 24.427,260.774 24.333,260.677 24.333 C 260.579 24.333,260.500 24.533,260.500 24.778 C 260.500 25.022,260.450 25.173,260.390 25.112 C 260.221 24.943,259.798 25.641,259.934 25.862 C 260.014 25.990,259.966 26.022,259.793 25.956 C 259.642 25.898,259.407 25.993,259.240 26.178 C 259.080 26.355,258.847 26.500,258.724 26.500 C 258.601 26.500,258.500 26.579,258.500 26.677 C 258.500 26.774,258.430 26.810,258.345 26.757 C 258.259 26.704,258.080 26.818,257.946 27.009 C 257.812 27.200,257.675 27.286,257.643 27.199 C 257.610 27.112,257.340 27.078,257.043 27.123 C 256.746 27.167,256.545 27.271,256.595 27.352 C 256.645 27.433,256.349 27.500,255.936 27.500 C 255.524 27.500,255.152 27.556,255.109 27.625 C 255.067 27.694,254.631 27.740,254.141 27.728 C 253.639 27.716,253.197 27.789,253.128 27.895 C 253.040 28.029,253.004 28.024,253.003 27.875 C 253.001 27.714,252.121 27.667,249.167 27.667 L 245.333 27.667 245.333 19.086 L 245.333 10.505 249.875 10.458 C 252.373 10.432,254.567 10.401,254.750 10.389 C 254.975 10.374,254.948 10.405,254.667 10.486 M189.958 21.614 C 189.932 23.705,189.910 22.042,189.910 17.917 C 189.910 13.792,189.932 12.080,189.958 14.114 C 189.985 16.147,189.985 19.522,189.958 21.614 M305.640 13.549 C 305.506 13.800,305.504 13.918,305.633 13.961 C 305.733 13.994,305.769 14.141,305.712 14.288 C 305.640 14.475,305.673 14.516,305.823 14.423 C 305.980 14.326,306.007 14.382,305.926 14.638 C 305.771 15.126,306.125 16.333,306.423 16.333 C 306.557 16.333,306.667 16.413,306.667 16.510 C 306.667 16.607,306.592 16.640,306.500 16.583 C 306.408 16.527,306.333 16.623,306.333 16.798 C 306.333 16.973,306.502 17.205,306.708 17.313 C 306.915 17.422,306.952 17.473,306.792 17.427 C 306.584 17.368,306.500 17.439,306.500 17.672 C 306.500 17.852,306.575 18.000,306.667 18.000 C 306.758 18.000,306.833 18.225,306.833 18.500 C 306.833 18.775,306.895 19.000,306.971 19.000 C 307.047 19.000,307.074 19.236,307.032 19.524 C 306.979 19.886,307.013 20.011,307.144 19.931 C 307.258 19.860,307.338 19.934,307.345 20.115 C 307.372 20.838,307.515 21.568,307.667 21.750 C 307.757 21.859,307.775 22.009,307.707 22.084 C 307.639 22.158,307.707 22.176,307.859 22.121 C 308.150 22.017,308.180 22.247,307.928 22.651 C 307.822 22.821,307.841 22.848,308.001 22.750 C 308.166 22.647,308.194 22.710,308.116 23.009 C 308.049 23.265,308.113 23.519,308.298 23.731 C 308.455 23.910,308.490 24.002,308.375 23.935 C 308.245 23.860,308.167 23.912,308.167 24.073 C 308.167 24.216,308.242 24.333,308.333 24.333 C 308.425 24.333,308.500 24.521,308.500 24.750 C 308.500 25.035,308.592 25.167,308.792 25.169 C 308.991 25.171,309.020 25.212,308.883 25.299 C 308.665 25.437,308.654 26.167,308.869 26.167 C 308.941 26.167,309.001 26.448,309.003 26.792 C 309.004 27.267,309.045 27.357,309.174 27.167 C 309.299 26.982,309.330 27.090,309.296 27.583 C 309.268 27.988,309.320 28.238,309.428 28.218 C 309.534 28.200,309.577 28.385,309.534 28.677 C 309.489 28.983,309.536 29.167,309.659 29.167 C 309.782 29.167,309.815 29.296,309.746 29.512 C 309.672 29.747,309.735 29.933,309.943 30.090 C 310.123 30.227,310.164 30.325,310.042 30.328 C 309.763 30.335,309.778 30.588,310.075 30.885 C 310.209 31.018,310.267 31.177,310.205 31.239 C 310.143 31.301,310.203 31.421,310.338 31.507 C 310.513 31.617,310.522 31.662,310.369 31.664 C 310.219 31.666,310.200 31.754,310.305 31.958 C 310.387 32.119,310.417 32.356,310.371 32.485 C 310.314 32.647,310.372 32.688,310.561 32.615 C 310.711 32.558,310.833 32.588,310.833 32.682 C 310.833 32.776,310.920 32.799,311.026 32.734 C 311.146 32.660,311.173 32.688,311.098 32.810 C 311.031 32.918,310.907 32.962,310.822 32.910 C 310.611 32.779,310.625 33.444,310.842 33.849 C 310.938 34.029,311.107 34.131,311.217 34.076 C 311.327 34.020,311.288 34.081,311.131 34.210 C 310.923 34.381,310.895 34.495,311.028 34.628 C 311.197 34.797,311.255 35.057,311.312 35.895 C 311.328 36.125,311.388 36.162,311.542 36.035 C 311.698 35.905,311.750 35.958,311.750 36.250 C 311.750 36.545,311.699 36.596,311.538 36.462 C 311.377 36.329,311.351 36.352,311.431 36.560 C 311.488 36.710,311.593 36.833,311.663 36.833 C 311.733 36.833,311.784 36.965,311.778 37.125 C 311.759 37.566,312.021 38.894,312.163 39.083 C 312.232 39.175,312.326 39.456,312.371 39.708 L 312.454 40.167 305.241 40.167 C 299.621 40.167,298.011 40.213,297.953 40.375 C 297.912 40.490,297.818 40.526,297.743 40.457 C 297.669 40.387,297.746 40.229,297.914 40.106 C 298.102 39.969,298.180 39.775,298.116 39.607 C 298.058 39.457,298.074 39.333,298.152 39.333 C 298.231 39.333,298.329 39.153,298.371 38.932 C 298.430 38.623,298.387 38.549,298.182 38.610 C 298.036 38.654,298.075 38.591,298.269 38.470 C 298.476 38.341,298.600 38.115,298.570 37.922 C 298.542 37.742,298.579 37.517,298.653 37.422 C 298.788 37.249,299.057 36.394,299.074 36.083 C 299.079 35.992,299.158 35.855,299.250 35.779 C 299.358 35.690,299.343 35.612,299.209 35.557 C 299.048 35.492,299.058 35.391,299.250 35.116 C 299.388 34.920,299.500 34.509,299.500 34.203 C 299.500 33.805,299.559 33.681,299.708 33.767 C 299.823 33.833,299.869 33.833,299.811 33.768 C 299.753 33.703,299.764 33.391,299.835 33.074 C 299.909 32.749,299.899 32.457,299.812 32.404 C 299.728 32.352,299.811 32.183,299.996 32.030 C 300.225 31.839,300.345 31.512,300.374 31.000 C 300.398 30.587,300.516 30.145,300.638 30.017 C 300.760 29.889,300.823 29.645,300.779 29.475 C 300.734 29.305,300.754 29.167,300.824 29.167 C 300.893 29.167,300.956 28.930,300.964 28.641 C 300.972 28.352,301.068 28.061,301.177 27.994 C 301.285 27.927,301.337 27.769,301.292 27.644 C 301.247 27.519,301.316 27.155,301.447 26.835 C 301.577 26.515,301.663 26.055,301.637 25.814 C 301.612 25.572,301.690 25.256,301.810 25.111 C 301.930 24.967,301.980 24.770,301.921 24.674 C 301.862 24.578,301.898 24.500,302.001 24.500 C 302.103 24.500,302.168 24.369,302.143 24.208 C 302.118 24.048,302.201 23.730,302.326 23.503 C 302.451 23.275,302.560 22.742,302.568 22.317 C 302.577 21.859,302.654 21.571,302.756 21.610 C 302.851 21.646,302.940 21.527,302.953 21.347 C 302.971 21.112,302.898 21.043,302.697 21.102 C 302.515 21.156,302.548 21.087,302.792 20.906 C 302.998 20.752,303.167 20.452,303.167 20.240 C 303.167 20.027,303.242 19.807,303.333 19.750 C 303.425 19.693,303.499 19.558,303.497 19.448 C 303.496 19.329,303.430 19.350,303.333 19.500 C 303.168 19.756,303.167 19.753,303.167 19.042 C 303.167 18.973,303.253 18.917,303.359 18.917 C 303.465 18.917,303.573 18.767,303.599 18.583 C 303.626 18.400,303.702 17.987,303.768 17.667 C 303.835 17.346,303.875 17.022,303.857 16.946 C 303.840 16.870,303.902 16.856,303.996 16.914 C 304.090 16.973,304.167 16.873,304.167 16.690 C 304.167 16.509,304.073 16.327,303.958 16.285 C 303.797 16.226,303.803 16.156,303.983 15.979 C 304.130 15.834,304.172 15.827,304.098 15.958 C 304.033 16.073,304.065 16.167,304.168 16.167 C 304.276 16.167,304.313 16.033,304.256 15.851 C 304.200 15.677,304.254 15.433,304.375 15.309 C 304.600 15.079,304.694 14.658,304.730 13.724 C 304.741 13.435,304.807 13.234,304.876 13.276 C 305.115 13.424,305.192 12.859,304.987 12.471 C 304.838 12.190,304.926 12.237,305.305 12.640 C 305.753 13.116,305.802 13.248,305.640 13.549 M245.124 26.618 C 245.092 27.241,245.065 26.775,245.065 25.583 C 245.064 24.392,245.091 23.882,245.123 24.451 C 245.156 25.021,245.156 25.996,245.124 26.618 M146.500 33.770 C 146.500 34.002,146.542 34.009,146.792 33.818 C 146.952 33.695,147.115 33.573,147.153 33.547 C 147.191 33.521,147.060 33.500,146.861 33.500 C 146.639 33.500,146.500 33.604,146.500 33.770 M189.958 46.625 C 189.932 48.985,189.911 47.054,189.911 42.333 C 189.911 37.612,189.932 35.681,189.958 38.042 C 189.984 40.402,189.984 44.265,189.958 46.625 M245.125 53.625 C 245.100 56.810,245.079 54.204,245.079 47.833 C 245.079 41.462,245.100 38.856,245.125 42.042 C 245.150 45.227,245.150 50.440,245.125 53.625 M159.208 38.125 C 157.077 38.151,153.590 38.151,151.458 38.125 C 149.327 38.098,151.071 38.077,155.333 38.077 C 159.596 38.077,161.340 38.098,159.208 38.125 M359.125 54.875 C 359.099 57.373,359.078 55.329,359.078 50.333 C 359.078 45.337,359.099 43.294,359.125 45.792 C 359.151 48.290,359.151 52.377,359.125 54.875 M211.458 51.292 C 207.540 51.317,201.127 51.317,197.208 51.292 C 193.290 51.267,196.496 51.246,204.333 51.246 C 212.171 51.246,215.377 51.267,211.458 51.292 " stroke="none" fill="#1c34bc" fill-rule="evenodd"></path><path id="path1" d="M22.333 1.148 C 22.196 1.226,21.222 1.343,20.169 1.407 C 19.117 1.471,18.217 1.582,18.169 1.653 C 18.122 1.725,17.560 1.836,16.921 1.900 C 16.282 1.964,15.718 2.083,15.668 2.164 C 15.618 2.245,15.185 2.364,14.705 2.427 C 14.226 2.491,13.833 2.602,13.833 2.673 C 13.833 2.745,13.515 2.856,13.125 2.921 C 12.493 3.025,11.819 3.270,10.500 3.877 C 8.292 4.892,5.670 6.869,4.833 8.149 C 4.696 8.359,4.452 8.686,4.292 8.874 C 4.131 9.063,4.000 9.319,4.000 9.442 C 4.000 9.566,3.939 9.667,3.865 9.667 C 3.635 9.667,2.983 11.343,2.882 12.194 C 2.830 12.637,2.722 13.000,2.643 13.000 C 2.565 13.000,2.500 14.088,2.500 15.417 C 2.500 16.746,2.565 17.833,2.644 17.833 C 2.723 17.833,2.834 18.172,2.891 18.586 C 2.948 19.001,3.146 19.671,3.331 20.077 C 3.515 20.483,3.667 20.894,3.667 20.991 C 3.667 21.088,3.742 21.167,3.833 21.167 C 3.925 21.167,4.000 21.282,4.000 21.422 C 4.000 21.562,4.106 21.718,4.235 21.767 C 4.364 21.817,4.516 22.040,4.571 22.262 C 4.627 22.485,4.747 22.667,4.837 22.667 C 4.926 22.667,5.000 22.762,5.000 22.877 C 5.000 22.993,5.702 23.762,6.559 24.586 C 8.122 26.086,8.695 26.568,9.816 27.320 C 10.146 27.542,10.620 27.860,10.868 28.028 C 11.117 28.196,11.390 28.333,11.475 28.333 C 11.561 28.333,11.674 28.446,11.727 28.583 C 11.780 28.721,11.938 28.833,12.078 28.833 C 12.218 28.833,12.333 28.893,12.333 28.967 C 12.333 29.040,12.596 29.195,12.917 29.311 C 13.237 29.427,13.500 29.592,13.500 29.677 C 13.500 29.763,13.607 29.833,13.738 29.833 C 13.869 29.833,14.077 29.927,14.199 30.042 C 14.322 30.156,14.796 30.438,15.253 30.667 C 15.710 30.896,16.121 31.121,16.167 31.167 C 16.212 31.212,16.700 31.475,17.250 31.750 C 17.800 32.025,18.275 32.306,18.306 32.375 C 18.336 32.444,18.449 32.502,18.556 32.505 C 18.662 32.508,19.125 32.695,19.583 32.920 C 20.042 33.146,20.510 33.331,20.625 33.332 C 20.740 33.333,20.833 33.408,20.833 33.500 C 20.833 33.592,20.927 33.669,21.042 33.672 C 21.156 33.675,21.550 33.823,21.917 34.000 C 22.283 34.177,22.677 34.325,22.792 34.328 C 22.906 34.331,23.000 34.393,23.000 34.465 C 23.000 34.538,23.469 34.811,24.042 35.073 C 24.615 35.334,25.121 35.594,25.167 35.649 C 25.212 35.705,25.625 35.938,26.083 36.167 C 26.542 36.396,26.954 36.627,27.000 36.680 C 27.046 36.733,27.327 36.883,27.625 37.012 C 27.923 37.142,28.167 37.305,28.167 37.374 C 28.167 37.443,28.274 37.500,28.405 37.500 C 28.536 37.500,28.742 37.594,28.864 37.708 C 28.985 37.823,29.591 38.254,30.209 38.665 C 30.827 39.077,31.333 39.471,31.333 39.540 C 31.333 39.610,31.418 39.667,31.522 39.667 C 31.757 39.667,33.500 41.409,33.500 41.644 C 33.500 41.739,33.594 41.877,33.708 41.950 C 34.300 42.328,35.166 44.835,35.166 46.167 C 35.166 48.196,33.794 50.429,32.352 50.746 C 32.067 50.809,31.833 50.924,31.833 51.003 C 31.833 51.082,31.477 51.199,31.042 51.263 C 30.606 51.327,30.199 51.459,30.137 51.556 C 29.976 51.805,23.953 51.806,23.646 51.557 C 23.520 51.454,23.023 51.318,22.542 51.253 C 22.060 51.188,21.667 51.082,21.667 51.018 C 21.667 50.953,21.409 50.807,21.093 50.693 C 20.263 50.393,19.084 49.203,18.836 48.417 C 18.720 48.050,18.560 47.620,18.480 47.461 C 18.399 47.301,18.333 46.083,18.333 44.752 L 18.333 42.333 10.167 42.333 L 2.000 42.333 2.000 44.583 C 2.000 45.821,2.064 46.833,2.142 46.833 C 2.220 46.833,2.331 47.447,2.389 48.197 C 2.447 48.947,2.561 49.603,2.643 49.655 C 2.725 49.707,2.848 50.012,2.918 50.333 C 3.073 51.046,3.683 52.333,3.867 52.333 C 3.940 52.333,4.000 52.448,4.000 52.589 C 4.000 52.729,4.112 52.887,4.250 52.940 C 4.387 52.992,4.500 53.130,4.500 53.245 C 4.500 53.536,6.278 55.312,7.175 55.917 C 7.583 56.192,7.942 56.473,7.972 56.542 C 8.003 56.610,8.107 56.667,8.204 56.667 C 8.301 56.667,8.738 56.887,9.176 57.156 C 9.614 57.426,10.275 57.728,10.646 57.828 C 11.016 57.927,11.360 58.075,11.411 58.157 C 11.461 58.238,11.801 58.355,12.168 58.417 C 12.534 58.479,12.833 58.593,12.833 58.671 C 12.833 58.749,13.190 58.865,13.625 58.930 C 14.060 58.994,14.454 59.101,14.500 59.167 C 14.546 59.234,15.071 59.370,15.667 59.470 C 16.262 59.570,17.125 59.725,17.583 59.816 C 18.042 59.906,19.448 60.033,20.708 60.099 C 21.969 60.164,23.000 60.281,23.000 60.359 C 23.000 60.564,30.790 60.539,30.917 60.333 C 30.973 60.242,31.518 60.167,32.126 60.167 C 33.592 60.167,37.039 59.830,37.250 59.667 C 37.342 59.595,37.885 59.484,38.458 59.419 C 39.031 59.354,39.500 59.243,39.500 59.172 C 39.500 59.101,39.872 58.994,40.326 58.933 C 40.781 58.873,41.198 58.751,41.253 58.662 C 41.308 58.573,41.480 58.500,41.635 58.499 C 41.790 58.498,42.104 58.401,42.333 58.281 C 42.563 58.162,43.106 57.966,43.542 57.844 C 43.977 57.723,44.333 57.566,44.333 57.496 C 44.333 57.427,44.521 57.322,44.750 57.265 C 44.979 57.207,45.167 57.093,45.167 57.010 C 45.167 56.927,45.392 56.810,45.667 56.750 C 45.942 56.690,46.167 56.580,46.167 56.507 C 46.167 56.434,46.392 56.281,46.667 56.167 C 46.942 56.053,47.167 55.894,47.167 55.813 C 47.167 55.733,47.256 55.667,47.366 55.667 C 47.670 55.667,50.250 52.958,50.515 52.361 C 50.643 52.071,50.799 51.833,50.861 51.833 C 50.923 51.833,51.023 51.608,51.083 51.333 C 51.144 51.058,51.256 50.833,51.333 50.833 C 51.410 50.833,51.526 50.590,51.589 50.292 C 51.653 49.994,51.771 49.667,51.853 49.566 C 51.934 49.465,52.043 48.903,52.096 48.316 C 52.150 47.730,52.269 47.092,52.362 46.899 C 52.611 46.380,52.194 42.198,51.848 41.759 C 51.772 41.662,51.659 41.302,51.598 40.958 C 51.536 40.615,51.419 40.333,51.339 40.333 C 51.259 40.333,51.144 40.108,51.083 39.833 C 51.023 39.558,50.910 39.333,50.833 39.333 C 50.756 39.333,50.606 39.071,50.500 38.750 C 50.394 38.429,50.238 38.167,50.154 38.167 C 50.069 38.167,50.000 38.079,50.000 37.972 C 50.000 37.735,49.867 37.583,48.286 36.000 C 46.768 34.481,46.058 33.833,45.910 33.833 C 45.848 33.833,45.562 33.645,45.274 33.414 C 44.986 33.184,44.675 32.936,44.583 32.864 C 44.492 32.792,44.285 32.683,44.125 32.622 C 43.965 32.561,43.833 32.441,43.833 32.357 C 43.833 32.272,43.646 32.156,43.417 32.098 C 43.188 32.041,43.000 31.926,43.000 31.843 C 43.000 31.760,42.737 31.606,42.417 31.500 C 42.096 31.394,41.833 31.244,41.833 31.167 C 41.833 31.090,41.615 30.978,41.347 30.920 C 41.080 30.861,40.820 30.705,40.769 30.573 C 40.719 30.441,40.562 30.333,40.422 30.333 C 40.282 30.333,40.167 30.264,40.167 30.180 C 40.167 30.096,39.942 29.977,39.667 29.917 C 39.392 29.856,39.167 29.744,39.167 29.666 C 39.167 29.589,38.885 29.434,38.542 29.322 C 38.198 29.210,37.879 29.065,37.833 29.000 C 37.733 28.857,35.405 27.746,34.875 27.589 C 34.669 27.528,34.500 27.414,34.500 27.335 C 34.500 27.257,34.275 27.144,34.000 27.083 C 33.725 27.023,33.500 26.910,33.500 26.833 C 33.500 26.756,33.275 26.644,33.000 26.583 C 32.725 26.523,32.500 26.404,32.500 26.320 C 32.500 26.236,32.414 26.167,32.308 26.167 C 32.087 26.167,30.292 25.305,30.165 25.138 C 30.118 25.077,29.874 24.975,29.623 24.912 C 29.372 24.849,29.167 24.730,29.167 24.649 C 29.167 24.567,29.064 24.500,28.939 24.500 C 28.814 24.500,28.533 24.360,28.314 24.190 C 28.096 24.019,27.729 23.821,27.500 23.750 C 27.271 23.680,27.046 23.573,27.000 23.513 C 26.931 23.423,25.744 22.651,24.090 21.620 C 23.910 21.508,23.562 21.229,23.316 21.000 C 23.070 20.771,22.661 20.433,22.405 20.250 C 21.859 19.857,21.848 19.846,20.995 18.678 C 20.631 18.180,20.333 17.674,20.333 17.553 C 20.333 17.432,20.261 17.333,20.172 17.333 C 20.084 17.333,19.962 16.958,19.901 16.500 C 19.840 16.042,19.725 15.667,19.645 15.667 C 19.565 15.667,19.500 15.329,19.500 14.917 C 19.500 14.504,19.565 14.167,19.645 14.167 C 19.725 14.167,19.840 13.861,19.899 13.488 C 20.014 12.769,20.937 11.351,21.297 11.340 C 21.414 11.336,21.550 11.229,21.599 11.102 C 21.648 10.975,22.021 10.778,22.427 10.664 C 22.834 10.550,23.167 10.399,23.167 10.328 C 23.167 10.257,23.635 10.146,24.208 10.081 C 24.781 10.016,25.338 9.892,25.445 9.805 C 26.241 9.162,32.546 10.120,33.813 11.076 C 34.423 11.536,35.151 12.414,35.250 12.808 C 35.310 13.049,35.439 13.296,35.537 13.356 C 35.642 13.421,35.747 14.450,35.797 15.899 L 35.879 18.333 43.940 18.333 L 52.000 18.333 52.000 15.677 C 52.000 14.215,51.935 12.979,51.855 12.930 C 51.776 12.881,51.661 12.464,51.600 12.004 C 51.538 11.543,51.424 11.167,51.346 11.167 C 51.268 11.167,51.155 10.904,51.094 10.583 C 51.034 10.262,50.921 10.000,50.844 10.000 C 50.766 10.000,50.654 9.805,50.594 9.567 C 50.479 9.109,50.025 8.418,49.333 7.649 C 49.104 7.394,48.833 7.087,48.731 6.967 C 48.180 6.321,45.991 4.667,45.687 4.667 C 45.597 4.667,45.425 4.573,45.304 4.458 C 44.984 4.156,43.594 3.500,43.273 3.500 C 43.123 3.500,43.000 3.432,43.000 3.350 C 43.000 3.267,42.606 3.108,42.125 2.995 C 41.644 2.882,41.173 2.729,41.079 2.656 C 40.985 2.582,40.516 2.469,40.038 2.406 C 39.559 2.342,39.167 2.231,39.167 2.158 C 39.167 2.086,38.660 1.973,38.042 1.908 C 37.423 1.842,36.879 1.733,36.833 1.665 C 36.559 1.255,22.993 0.771,22.333 1.148 M61.333 30.731 L 61.333 59.628 61.708 59.728 C 62.387 59.910,77.997 59.847,78.344 59.661 C 78.661 59.491,78.667 58.991,78.667 30.661 L 78.667 1.833 70.000 1.833 L 61.333 1.833 61.333 30.731 M184.638 59.792 C 190.901 59.816,201.101 59.816,207.305 59.792 C 213.508 59.767,208.383 59.748,195.917 59.748 C 183.450 59.748,178.375 59.767,184.638 59.792 M232.542 59.792 C 234.810 59.818,238.523 59.818,240.792 59.792 C 243.060 59.765,241.204 59.744,236.667 59.744 C 232.129 59.744,230.273 59.765,232.542 59.792 M281.303 59.792 C 283.441 59.818,286.891 59.818,288.970 59.791 C 291.049 59.765,289.300 59.743,285.083 59.743 C 280.867 59.744,279.166 59.765,281.303 59.792 M321.947 59.791 C 324.163 59.818,327.838 59.818,330.113 59.792 C 332.389 59.765,330.575 59.744,326.083 59.744 C 321.592 59.744,319.730 59.765,321.947 59.791 M346.542 59.792 C 348.810 59.818,352.523 59.818,354.792 59.792 C 357.060 59.765,355.204 59.744,350.667 59.744 C 346.129 59.744,344.273 59.765,346.542 59.792 M384.208 59.792 C 386.569 59.818,390.431 59.818,392.792 59.792 C 395.152 59.765,393.221 59.744,388.500 59.744 C 383.779 59.744,381.848 59.765,384.208 59.792 " stroke="none" fill="#040404" fill-rule="evenodd"></path><path id="path2" d="M133.833 1.180 C 133.833 1.309,134.619 1.270,134.755 1.133 C 134.798 1.091,134.608 1.056,134.333 1.056 C 134.058 1.056,133.833 1.111,133.833 1.180 M137.875 1.123 C 138.310 1.157,139.023 1.157,139.458 1.123 C 139.894 1.088,139.537 1.060,138.667 1.060 C 137.796 1.060,137.440 1.088,137.875 1.123 M256.929 2.145 C 257.106 2.317,257.279 2.431,257.315 2.399 C 257.421 2.306,256.976 1.833,256.784 1.833 C 256.687 1.833,256.753 1.974,256.929 2.145 M228.077 2.208 C 228.033 2.323,228.017 15.242,228.041 30.917 L 228.084 59.417 228.125 30.806 C 228.158 8.104,228.210 2.177,228.375 2.110 C 228.538 2.045,228.537 2.023,228.370 2.013 C 228.252 2.006,228.121 2.094,228.077 2.208 M228.333 30.953 L 228.250 59.655 236.667 59.622 L 245.083 59.589 236.792 59.543 L 228.501 59.497 228.459 30.873 L 228.417 2.250 228.333 30.953 M359.079 14.167 C 359.079 20.721,359.100 23.402,359.125 20.125 C 359.150 16.848,359.150 11.485,359.125 8.208 C 359.100 4.931,359.079 7.612,359.079 14.167 M152.500 3.004 C 152.500 3.182,153.151 3.327,153.248 3.170 C 153.293 3.097,153.143 3.002,152.915 2.959 C 152.687 2.915,152.500 2.935,152.500 3.004 M317.574 3.739 C 317.253 3.976,317.253 3.978,317.574 3.933 C 317.753 3.908,317.928 3.800,317.963 3.694 C 318.048 3.440,317.965 3.449,317.574 3.739 M293.434 4.597 C 293.298 4.953,293.306 5.249,293.449 5.107 C 293.576 4.979,293.703 4.333,293.600 4.333 C 293.565 4.333,293.490 4.452,293.434 4.597 M376.667 5.848 C 376.667 5.943,376.604 5.981,376.528 5.934 C 376.451 5.887,376.389 5.957,376.389 6.091 C 376.389 6.224,376.493 6.333,376.621 6.333 C 376.756 6.333,376.802 6.252,376.732 6.138 C 376.651 6.007,376.703 5.978,376.889 6.050 C 377.042 6.108,377.167 6.092,377.167 6.013 C 377.167 5.934,377.054 5.826,376.917 5.773 C 376.779 5.720,376.667 5.754,376.667 5.848 M275.433 8.641 C 275.375 8.734,275.409 8.860,275.508 8.922 C 275.765 9.080,275.930 8.863,275.716 8.649 C 275.596 8.530,275.503 8.527,275.433 8.641 M138.794 9.618 C 139.001 9.658,139.301 9.656,139.460 9.615 C 139.620 9.573,139.450 9.540,139.083 9.542 C 138.717 9.544,138.586 9.578,138.794 9.618 M291.680 10.625 C 291.688 10.801,291.726 10.834,291.777 10.707 C 291.824 10.592,291.930 10.540,292.014 10.592 C 292.098 10.644,292.167 10.607,292.167 10.510 C 292.167 10.413,292.054 10.333,291.917 10.333 C 291.779 10.333,291.673 10.465,291.680 10.625 M189.910 17.917 C 189.910 22.042,189.932 23.705,189.958 21.614 C 189.985 19.522,189.985 16.147,189.958 14.114 C 189.932 12.080,189.910 13.792,189.910 17.917 M146.117 11.111 C 146.188 11.297,146.159 11.349,146.028 11.268 C 145.921 11.201,145.833 11.226,145.833 11.323 C 145.833 11.421,145.986 11.500,146.173 11.500 C 146.460 11.500,146.485 11.449,146.333 11.167 C 146.117 10.763,145.969 10.725,146.117 11.111 M319.917 11.499 C 319.860 11.591,319.898 11.667,320.000 11.667 C 320.102 11.667,320.140 11.742,320.083 11.833 C 320.027 11.925,320.097 12.000,320.240 12.000 C 320.563 12.000,320.569 11.879,320.261 11.570 C 320.111 11.421,319.982 11.394,319.917 11.499 M259.696 12.268 C 259.842 12.413,260.090 12.506,260.248 12.474 C 260.445 12.435,260.363 12.352,259.983 12.210 C 259.480 12.021,259.455 12.026,259.696 12.268 M277.000 12.490 C 277.000 12.576,277.145 12.635,277.322 12.622 C 277.499 12.608,277.607 12.538,277.562 12.465 C 277.448 12.281,277.000 12.300,277.000 12.490 M305.333 12.992 C 305.333 13.400,305.548 13.692,305.687 13.472 C 305.888 13.155,305.867 13.049,305.583 12.940 C 305.446 12.887,305.333 12.910,305.333 12.992 M369.454 13.902 C 369.177 14.112,369.181 14.132,369.531 14.223 C 369.735 14.276,369.937 14.286,369.979 14.243 C 370.021 14.201,369.970 14.167,369.866 14.167 C 369.762 14.167,369.720 14.054,369.773 13.917 C 369.889 13.613,369.838 13.611,369.454 13.902 M260.764 14.274 C 260.605 14.688,260.780 14.744,260.992 14.348 C 261.095 14.156,261.109 14.000,261.024 14.000 C 260.939 14.000,260.822 14.123,260.764 14.274 M131.080 30.667 C 131.080 39.604,131.100 43.260,131.125 38.792 C 131.150 34.323,131.150 27.010,131.125 22.542 C 131.100 18.073,131.080 21.729,131.080 30.667 M147.237 17.917 C 147.237 19.750,147.261 20.523,147.291 19.634 C 147.321 18.745,147.321 17.245,147.291 16.301 C 147.261 15.356,147.237 16.083,147.237 17.917 M113.913 30.917 C 113.913 39.442,113.934 42.905,113.958 38.612 C 113.983 34.320,113.983 27.345,113.958 23.112 C 113.934 18.880,113.913 22.392,113.913 30.917 M304.035 15.839 C 303.783 16.242,303.782 16.333,304.028 16.333 C 304.135 16.333,304.173 16.284,304.113 16.224 C 304.052 16.163,304.088 16.012,304.192 15.886 C 304.296 15.761,304.349 15.626,304.309 15.587 C 304.270 15.547,304.146 15.661,304.035 15.839 M277.902 18.750 C 277.902 20.400,277.927 21.052,277.958 20.200 C 277.988 19.347,277.988 17.997,277.957 17.200 C 277.927 16.402,277.902 17.100,277.902 18.750 M381.709 17.918 C 381.778 17.994,381.710 18.194,381.558 18.361 C 381.300 18.647,381.302 18.667,381.585 18.667 C 381.752 18.667,381.840 18.617,381.779 18.557 C 381.719 18.497,381.748 18.353,381.843 18.239 C 381.965 18.091,381.953 17.993,381.800 17.905 C 381.681 17.836,381.640 17.842,381.709 17.918 M303.116 18.956 C 303.075 19.026,303.095 19.229,303.160 19.408 C 303.272 19.716,303.282 19.714,303.373 19.366 C 303.465 19.013,303.266 18.695,303.116 18.956 M289.000 19.250 C 289.000 19.387,289.122 19.500,289.270 19.500 C 289.492 19.500,289.503 19.455,289.333 19.250 C 289.219 19.112,289.098 19.000,289.063 19.000 C 289.028 19.000,289.000 19.112,289.000 19.250 M288.559 21.157 C 288.580 21.682,288.701 21.689,288.780 21.171 C 288.807 20.994,288.764 20.810,288.684 20.761 C 288.604 20.711,288.548 20.890,288.559 21.157 M288.386 21.942 C 288.446 22.002,288.374 22.139,288.225 22.247 C 287.998 22.413,287.995 22.444,288.205 22.444 C 288.342 22.444,288.540 22.307,288.645 22.139 C 288.802 21.888,288.786 21.833,288.557 21.833 C 288.403 21.833,288.327 21.882,288.386 21.942 M307.917 22.128 C 307.694 22.291,307.627 22.667,307.821 22.667 C 307.906 22.667,308.008 22.798,308.048 22.958 C 308.088 23.119,308.112 22.969,308.102 22.625 C 308.092 22.281,308.083 22.001,308.083 22.003 C 308.083 22.004,308.008 22.060,307.917 22.128 M323.172 22.292 C 323.175 22.360,323.297 22.567,323.444 22.750 C 323.679 23.043,323.699 23.046,323.606 22.778 C 323.548 22.610,323.500 22.404,323.500 22.320 C 323.500 22.236,323.425 22.167,323.333 22.167 C 323.242 22.167,323.169 22.223,323.172 22.292 M245.065 25.583 C 245.065 26.775,245.092 27.241,245.124 26.618 C 245.156 25.996,245.156 25.021,245.123 24.451 C 245.091 23.882,245.064 24.392,245.065 25.583 M377.167 23.592 C 377.167 23.612,377.357 23.753,377.590 23.906 C 377.996 24.172,378.005 24.170,377.817 23.869 C 377.664 23.624,377.167 23.412,377.167 23.592 M360.783 23.890 C 360.736 24.013,360.773 24.219,360.864 24.348 C 360.997 24.534,361.012 24.523,360.938 24.292 C 360.886 24.131,360.916 24.000,361.005 24.000 C 361.094 24.000,361.167 23.925,361.167 23.833 C 361.167 23.588,360.883 23.630,360.783 23.890 M324.000 24.873 C 324.000 25.263,324.488 25.829,324.495 25.446 C 324.498 25.279,324.387 25.030,324.250 24.893 C 324.047 24.690,324.000 24.686,324.000 24.873 M301.667 25.250 C 301.497 25.455,301.508 25.500,301.730 25.500 C 301.878 25.500,302.000 25.387,302.000 25.250 C 302.000 25.113,301.972 25.000,301.937 25.000 C 301.902 25.000,301.781 25.113,301.667 25.250 M325.129 28.426 C 324.996 28.560,325.178 29.167,325.351 29.167 C 325.431 29.167,325.481 28.979,325.462 28.750 C 325.428 28.344,325.318 28.237,325.129 28.426 M380.107 28.581 C 380.053 28.722,380.141 28.897,380.312 28.988 C 380.531 29.106,380.611 29.088,380.611 28.924 C 380.611 28.800,380.510 28.737,380.387 28.784 C 380.235 28.843,380.196 28.783,380.266 28.602 C 380.323 28.454,380.331 28.333,380.286 28.333 C 380.240 28.333,380.160 28.445,380.107 28.581 M381.115 30.325 C 381.356 30.607,381.667 30.648,381.667 30.397 C 381.667 30.351,381.600 30.355,381.517 30.406 C 381.435 30.457,381.325 30.386,381.273 30.249 C 381.220 30.112,381.101 30.000,381.007 30.000 C 380.913 30.000,380.962 30.146,381.115 30.325 M273.530 31.095 C 273.158 31.516,273.391 31.607,273.818 31.208 C 274.074 30.969,274.134 30.836,273.985 30.840 C 273.856 30.843,273.651 30.958,273.530 31.095 M326.320 32.020 C 326.405 32.123,326.437 32.303,326.392 32.420 C 326.347 32.537,326.391 32.683,326.489 32.743 C 326.734 32.894,326.619 32.209,326.364 31.998 C 326.226 31.883,326.213 31.889,326.320 32.020 M271.261 32.659 C 271.084 32.723,271.012 32.821,271.102 32.877 C 271.274 32.983,271.797 32.737,271.662 32.613 C 271.619 32.574,271.438 32.594,271.261 32.659 M310.528 32.649 C 310.359 32.753,310.390 32.809,310.652 32.878 C 310.843 32.928,311.049 32.889,311.109 32.792 C 311.170 32.693,311.140 32.664,311.040 32.725 C 310.942 32.786,310.837 32.762,310.806 32.673 C 310.774 32.581,310.654 32.571,310.528 32.649 M284.821 33.458 C 284.814 33.527,284.785 33.702,284.756 33.847 C 284.728 33.992,284.811 34.111,284.941 34.111 C 285.091 34.111,285.120 34.053,285.019 33.952 C 284.931 33.864,284.899 33.689,284.948 33.563 C 284.996 33.437,284.990 33.333,284.934 33.333 C 284.879 33.333,284.828 33.390,284.821 33.458 M189.911 42.333 C 189.911 47.054,189.932 48.985,189.958 46.625 C 189.984 44.265,189.984 40.402,189.958 38.042 C 189.932 35.681,189.911 37.612,189.911 42.333 M366.051 34.441 C 365.828 34.531,365.948 35.000,366.194 35.000 C 366.282 35.000,366.301 34.917,366.238 34.815 C 366.175 34.713,366.227 34.564,366.354 34.484 C 366.595 34.331,366.392 34.302,366.051 34.441 M257.000 35.974 C 257.000 36.066,256.869 36.176,256.708 36.217 C 256.548 36.258,256.660 36.282,256.958 36.271 C 257.256 36.259,257.476 36.180,257.448 36.094 C 257.374 35.872,257.000 35.772,257.000 35.974 M311.518 36.061 C 311.376 36.233,311.381 36.332,311.540 36.464 C 311.699 36.596,311.750 36.541,311.750 36.236 C 311.750 35.763,311.760 35.771,311.518 36.061 M247.385 36.291 C 248.559 36.320,250.434 36.320,251.551 36.291 C 252.669 36.262,251.708 36.239,249.417 36.239 C 247.125 36.239,246.211 36.263,247.385 36.291 M245.079 47.833 C 245.079 54.204,245.100 56.810,245.125 53.625 C 245.150 50.440,245.150 45.227,245.125 42.042 C 245.100 38.856,245.079 41.462,245.079 47.833 M151.458 38.125 C 153.590 38.151,157.077 38.151,159.208 38.125 C 161.340 38.098,159.596 38.077,155.333 38.077 C 151.071 38.077,149.327 38.098,151.458 38.125 M147.239 42.500 C 147.239 44.929,147.263 45.923,147.291 44.708 C 147.320 43.494,147.320 41.506,147.291 40.292 C 147.263 39.077,147.239 40.071,147.239 42.500 M368.872 40.167 C 369.103 40.536,369.261 40.584,369.417 40.333 C 369.473 40.242,369.398 40.167,369.250 40.167 C 369.102 40.167,369.027 40.092,369.083 40.000 C 369.140 39.908,369.069 39.833,368.925 39.833 C 368.706 39.833,368.697 39.887,368.872 40.167 M282.457 41.429 C 282.399 41.733,282.427 41.807,282.552 41.681 C 282.771 41.462,282.852 41.000,282.671 41.000 C 282.598 41.000,282.502 41.193,282.457 41.429 M387.104 41.300 C 387.036 41.410,387.064 41.500,387.167 41.500 C 387.269 41.500,387.299 41.594,387.233 41.708 C 387.167 41.823,387.174 41.862,387.248 41.794 C 387.323 41.727,387.469 41.788,387.572 41.930 C 387.736 42.153,387.764 42.142,387.787 41.844 C 387.801 41.653,387.712 41.500,387.587 41.500 C 387.463 41.500,387.331 41.410,387.294 41.300 C 387.242 41.144,387.200 41.144,387.104 41.300 M359.078 50.333 C 359.078 55.329,359.099 57.373,359.125 54.875 C 359.151 52.377,359.151 48.290,359.125 45.792 C 359.099 43.294,359.078 45.337,359.078 50.333 M282.082 43.669 C 282.024 43.763,281.907 43.796,281.822 43.743 C 281.736 43.690,281.667 43.764,281.667 43.907 C 281.667 44.050,281.792 44.167,281.944 44.167 C 282.097 44.167,282.173 44.117,282.113 44.057 C 282.052 43.997,282.086 43.847,282.189 43.724 C 282.291 43.601,282.332 43.500,282.280 43.500 C 282.229 43.500,282.139 43.576,282.082 43.669 M371.167 44.123 C 371.167 44.373,371.656 44.940,371.661 44.696 C 371.664 44.575,371.554 44.364,371.417 44.226 C 371.279 44.089,371.167 44.042,371.167 44.123 M281.389 44.722 C 281.389 44.844,281.476 44.944,281.583 44.944 C 281.690 44.944,281.778 44.844,281.778 44.722 C 281.778 44.600,281.690 44.500,281.583 44.500 C 281.476 44.500,281.389 44.600,281.389 44.722 M371.783 45.057 C 371.736 45.180,371.764 45.386,371.846 45.515 C 371.954 45.686,371.996 45.625,371.997 45.292 C 372.000 44.794,371.918 44.704,371.783 45.057 M113.839 47.780 C 113.848 48.014,114.333 48.577,114.333 48.353 C 114.333 48.238,114.221 48.030,114.083 47.893 C 113.946 47.755,113.836 47.704,113.839 47.780 M162.833 48.010 C 162.833 48.107,162.921 48.132,163.028 48.066 C 163.164 47.982,163.187 48.042,163.102 48.264 C 163.009 48.508,163.027 48.537,163.176 48.390 C 163.283 48.283,163.321 48.114,163.259 48.015 C 163.116 47.782,162.833 47.779,162.833 48.010 M146.100 49.933 C 146.047 50.071,146.072 50.142,146.154 50.091 C 146.237 50.040,146.335 50.088,146.372 50.199 C 146.410 50.314,146.480 50.332,146.535 50.242 C 146.588 50.155,146.534 49.993,146.414 49.882 C 146.243 49.724,146.176 49.735,146.100 49.933 M315.592 51.042 C 315.497 51.350,315.541 51.848,315.653 51.736 C 315.754 51.635,315.806 50.833,315.711 50.833 C 315.681 50.833,315.627 50.927,315.592 51.042 M197.208 51.292 C 201.127 51.317,207.540 51.317,211.458 51.292 C 215.377 51.267,212.171 51.246,204.333 51.246 C 196.496 51.246,193.290 51.267,197.208 51.292 M137.757 51.988 C 137.704 52.074,137.737 52.191,137.831 52.248 C 137.924 52.306,138.000 52.283,138.000 52.197 C 138.000 52.111,138.378 52.068,138.841 52.100 C 139.359 52.136,139.643 52.096,139.581 51.996 C 139.453 51.789,137.885 51.782,137.757 51.988 M161.438 52.521 C 161.362 52.898,161.265 53.009,161.075 52.937 C 160.926 52.880,160.859 52.907,160.918 53.002 C 160.974 53.093,161.088 53.167,161.172 53.167 C 161.395 53.167,161.858 52.202,161.686 52.095 C 161.606 52.046,161.494 52.237,161.438 52.521 M116.439 53.749 C 116.492 53.886,116.602 53.957,116.684 53.906 C 116.919 53.760,116.858 53.500,116.589 53.500 C 116.440 53.500,116.381 53.598,116.439 53.749 M159.977 54.209 C 159.734 54.664,159.856 54.682,160.300 54.256 C 160.602 53.967,160.627 53.889,160.416 53.889 C 160.269 53.889,160.072 54.033,159.977 54.209 M118.487 55.555 C 118.912 56.023,119.003 56.080,118.995 55.875 C 118.992 55.806,118.786 55.606,118.536 55.430 L 118.083 55.110 118.487 55.555 M156.827 56.591 C 156.709 56.733,156.502 56.806,156.366 56.754 C 156.156 56.673,156.153 56.699,156.345 56.931 C 156.486 57.100,156.594 57.133,156.633 57.018 C 156.667 56.917,156.801 56.833,156.931 56.833 C 157.060 56.833,157.167 56.754,157.167 56.657 C 157.167 56.560,157.253 56.534,157.359 56.599 C 157.478 56.673,157.506 56.645,157.433 56.526 C 157.271 56.264,157.082 56.284,156.827 56.591 M377.833 56.480 C 377.833 56.816,378.309 57.031,378.616 56.834 C 378.861 56.677,378.866 56.657,378.639 56.727 C 378.486 56.774,378.320 56.705,378.269 56.573 C 378.169 56.313,377.833 56.241,377.833 56.480 M120.928 56.816 C 120.865 56.917,120.898 57.000,121.000 57.000 C 121.102 57.000,121.140 57.075,121.083 57.167 C 121.027 57.258,121.060 57.333,121.157 57.333 C 121.369 57.333,121.379 57.164,121.185 56.857 C 121.085 56.700,121.007 56.687,120.928 56.816 M277.669 57.208 C 277.671 57.577,277.718 57.677,277.815 57.523 C 277.947 57.316,277.882 56.667,277.731 56.667 C 277.695 56.667,277.668 56.910,277.669 57.208 M153.910 57.845 C 153.849 57.943,153.676 57.976,153.525 57.918 C 153.306 57.835,153.292 57.856,153.457 58.022 C 153.789 58.357,154.167 58.337,154.167 57.985 C 154.167 57.629,154.074 57.578,153.910 57.845 M396.208 57.782 C 396.369 57.824,396.500 58.015,396.500 58.207 C 396.500 58.636,396.720 58.454,396.753 57.997 C 396.772 57.742,396.679 57.671,396.347 57.686 C 396.065 57.699,396.017 57.732,396.208 57.782 M124.500 58.399 C 124.500 58.527,124.614 58.675,124.754 58.728 C 124.961 58.808,124.975 58.765,124.831 58.496 C 124.625 58.110,124.500 58.073,124.500 58.399 M149.513 59.208 C 149.498 59.542,149.641 59.573,150.000 59.315 C 150.214 59.161,150.209 59.148,149.969 59.225 C 149.815 59.274,149.652 59.225,149.607 59.116 C 149.563 59.006,149.520 59.048,149.513 59.208 M128.722 59.579 C 128.722 59.698,128.841 59.772,128.986 59.744 C 129.131 59.715,129.319 59.686,129.403 59.679 C 129.641 59.660,129.414 59.496,129.050 59.426 C 128.860 59.390,128.722 59.454,128.722 59.579 M184.625 59.625 C 190.881 59.649,201.119 59.649,207.375 59.625 C 213.631 59.601,208.512 59.581,196.000 59.581 C 183.487 59.581,178.369 59.601,184.625 59.625 M281.125 59.625 C 283.256 59.651,286.744 59.651,288.875 59.625 C 291.006 59.598,289.262 59.577,285.000 59.577 C 280.737 59.577,278.994 59.598,281.125 59.625 M321.875 59.625 C 324.144 59.651,327.856 59.651,330.125 59.625 C 332.394 59.599,330.537 59.577,326.000 59.577 C 321.462 59.577,319.606 59.599,321.875 59.625 M346.542 59.625 C 348.810 59.651,352.523 59.651,354.792 59.625 C 357.060 59.599,355.204 59.577,350.667 59.577 C 346.129 59.577,344.273 59.599,346.542 59.625 M384.208 59.625 C 386.569 59.651,390.431 59.651,392.792 59.625 C 395.152 59.599,393.221 59.577,388.500 59.577 C 383.779 59.577,381.848 59.599,384.208 59.625 M135.044 60.216 C 135.115 60.428,135.636 60.519,135.747 60.338 C 135.793 60.265,135.640 60.169,135.408 60.124 C 135.161 60.077,135.010 60.115,135.044 60.216 " stroke="none" fill="#1c34c4" fill-rule="evenodd"></path><path id="path3" d="M107.750 1.676 C 107.108 2.040,106.452 2.384,106.292 2.439 C 106.131 2.494,106.000 2.599,106.000 2.673 C 106.000 2.747,105.776 2.856,105.502 2.916 C 105.228 2.976,104.965 3.088,104.918 3.164 C 104.871 3.240,104.346 3.587,103.750 3.936 C 103.096 4.318,102.667 4.681,102.667 4.850 C 102.667 5.218,103.151 5.402,103.274 5.081 C 103.326 4.945,103.464 4.833,103.581 4.833 C 103.801 4.833,105.013 4.321,106.770 3.485 C 107.332 3.218,107.844 3.000,107.909 3.000 C 108.024 3.000,109.424 2.083,110.083 1.576 C 110.368 1.356,110.380 1.298,110.166 1.163 C 109.680 0.856,108.902 1.021,107.750 1.676 M141.208 34.785 C 141.002 34.825,140.833 34.926,140.833 35.012 C 140.833 35.097,140.709 35.167,140.558 35.167 C 140.290 35.167,138.872 35.766,137.974 36.258 C 137.731 36.391,137.451 36.500,137.352 36.500 C 137.253 36.500,136.814 36.716,136.378 36.979 C 135.941 37.242,135.371 37.508,135.111 37.569 C 134.851 37.630,134.347 37.864,133.989 38.090 C 133.632 38.315,133.296 38.500,133.241 38.500 C 133.187 38.500,133.027 38.616,132.885 38.758 C 132.651 38.991,132.673 39.006,133.105 38.909 C 134.016 38.704,136.418 37.981,136.706 37.824 C 136.865 37.737,137.128 37.666,137.289 37.666 C 137.451 37.665,137.779 37.563,138.018 37.438 C 138.256 37.313,138.819 37.123,139.268 37.014 C 139.716 36.906,140.496 36.682,141.000 36.516 L 141.917 36.216 141.917 35.497 C 141.917 34.749,141.835 34.667,141.208 34.785 M140.665 50.684 C 140.343 50.754,139.856 50.928,139.582 51.071 C 139.308 51.214,138.990 51.332,138.875 51.332 C 138.760 51.333,138.667 51.403,138.667 51.488 C 138.667 51.574,138.498 51.682,138.292 51.729 C 138.085 51.775,138.595 51.791,139.424 51.763 C 140.311 51.733,141.100 51.617,141.341 51.481 C 141.566 51.354,141.771 51.242,141.796 51.232 C 142.342 51.019,141.345 50.535,140.665 50.684 " stroke="none" fill="#fcfcfc" fill-rule="evenodd"></path><path id="path4" d="" stroke="none" fill="#481884" fill-rule="evenodd"></path></g></svg>